<?xml version="1.0" encoding="UTF-8"?>
<svg width="212px" height="88px" viewBox="0 0 212 88" version="1.1" xmlns="http://www.w3.org/2000/svg" xmlns:xlink="http://www.w3.org/1999/xlink">
    <!-- Generator: Sketch 56.3 (81716) - https://sketch.com -->
    <title>競標</title>
    <desc>Created with Sketch.</desc>
    <g id="Website" stroke="none" stroke-width="1" fill="none" fill-rule="evenodd" opacity="0.555733817">
        <g id="Desktop-HD-Copy" transform="translate(-358.000000, -297.000000)" fill="#FFD5D5" fill-rule="nonzero">
            <path d="M427.536828,313.460432 C427.536828,313.279547 427.491607,313.128812 427.401165,313.008222 C427.310722,312.887632 427.175061,312.827338 426.994176,312.827338 L419.21617,312.827338 C419.035285,312.827338 418.899624,312.887632 418.809181,313.008222 C418.718739,313.128812 418.703665,313.279547 418.76396,313.460432 C419.24632,314.847215 419.638231,316.414859 419.939705,318.163412 C420,318.404592 419.909559,318.555327 419.66838,318.615622 L426.361083,318.615622 C426.059608,318.555327 425.969167,318.404592 426.089757,318.163412 C426.511821,316.776629 426.994173,315.208984 427.536828,313.460432 Z M439.927372,318.615622 C441.374451,318.615622 442.595404,319.113047 443.590271,320.107914 C444.585137,321.10278 445.082563,322.30866 445.082563,323.725591 C445.082563,325.142522 444.585137,326.363476 443.590271,327.388489 C442.595404,328.413503 441.374451,328.926002 439.927372,328.926002 L407.277835,328.926002 C405.830757,328.926002 404.609803,328.413503 403.614937,327.388489 C402.62007,326.363476 402.122645,325.142522 402.122645,323.725591 C402.122645,322.30866 402.62007,321.10278 403.614937,320.107914 C404.609803,319.113047 405.830757,318.615622 407.277835,318.615622 L408.091812,318.615622 C408.574172,318.615622 408.755054,318.404593 408.634464,317.982528 C408.332989,316.41486 407.941078,314.847216 407.458719,313.279548 C407.338129,312.978073 407.1271,312.827338 406.825625,312.827338 C405.740317,312.827338 404.820833,312.450501 404.067146,311.696814 C403.31346,310.943127 402.936622,310.023644 402.936622,308.938335 L402.936622,307.853032 C402.936622,306.466249 403.418974,305.290515 404.383693,304.325797 C405.348412,303.361078 406.524145,302.878726 407.910928,302.878726 L415.598493,302.878726 C416.020557,302.878726 416.231586,302.667697 416.231586,302.245632 C416.231586,300.858849 416.713938,299.683115 417.678657,298.718397 C418.643376,297.753678 419.819109,297.271326 421.205892,297.271326 L423.828708,297.271326 C425.215492,297.271326 426.391225,297.753678 427.355944,298.718397 C428.320663,299.683115 428.803015,300.858849 428.803015,302.245632 C428.803015,302.667697 429.014044,302.878726 429.436108,302.878726 L439.294279,302.878726 C440.681062,302.878726 441.856795,303.361078 442.821514,304.325797 C443.786233,305.290515 444.268585,306.466249 444.268585,307.853032 L444.268585,309.119219 C444.268585,310.144233 443.906821,311.018496 443.183282,311.742035 C442.459743,312.465574 441.58548,312.827338 440.560466,312.827338 C440.258991,312.827338 440.047962,312.947926 439.927372,313.189106 L437.48544,317.982528 C437.425145,318.163413 437.440219,318.314148 437.530661,318.434738 C437.621104,318.555328 437.756765,318.615622 437.93765,318.615622 L439.927372,318.615622 Z M384.215142,313.460432 C384.275437,313.279547 384.260364,313.128812 384.169921,313.008222 C384.079479,312.887632 383.943817,312.827338 383.762933,312.827338 L376.256252,312.827338 C376.075367,312.827338 375.939706,312.887632 375.849263,313.008222 C375.758821,313.128812 375.713601,313.279547 375.713601,313.460432 C376.19596,315.0281 376.587871,316.53545 376.889346,317.982528 C377.009936,318.404593 377.281259,318.615622 377.703323,318.615622 L383.129839,318.615622 C382.828364,318.555327 382.707776,318.404592 382.768071,318.163412 C383.250431,316.776629 383.732783,315.208984 384.215142,313.460432 Z M395.3395,318.615622 C396.726283,318.615622 397.932163,319.113047 398.957177,320.107914 C399.982191,321.10278 400.49469,322.30866 400.49469,323.725591 C400.49469,325.142522 399.982191,326.363476 398.957177,327.388489 C397.932163,328.413503 396.726283,328.926002 395.3395,328.926002 L363.865707,328.926002 C362.418629,328.926002 361.197675,328.413503 360.202809,327.388489 C359.207943,326.363476 358.710517,325.142522 358.710517,323.725591 C358.710517,322.30866 359.207943,321.10278 360.202809,320.107914 C361.197675,319.113047 362.418629,318.615622 363.865707,318.615622 L365.493662,318.615622 C365.976022,318.615622 366.156904,318.404593 366.036314,317.982528 C365.614249,315.932501 365.222338,314.364856 364.860569,313.279548 C364.739979,312.978073 364.52895,312.827338 364.227475,312.827338 C363.142167,312.827338 362.207609,312.435427 361.423775,311.651593 C360.639941,310.867759 360.24803,309.933202 360.24803,308.847893 L360.24803,307.853032 C360.24803,306.466249 360.730382,305.290515 361.695101,304.325797 C362.65982,303.361078 363.835553,302.878726 365.222336,302.878726 L373.633436,302.878726 C374.055501,302.878726 374.26653,302.667697 374.26653,302.245632 C374.26653,300.858849 374.748882,299.683115 375.713601,298.718397 C376.678319,297.753678 377.854053,297.271326 379.240836,297.271326 L381.321,297.271326 C382.707784,297.271326 383.883517,297.753678 384.848236,298.718397 C385.812954,299.683115 386.295307,300.858849 386.295307,302.245632 C386.295307,302.667697 386.506336,302.878726 386.9284,302.878726 L394.977732,302.878726 C396.30422,302.878726 397.449807,303.361078 398.414526,304.325797 C399.379244,305.290515 399.861596,306.466249 399.861596,307.853032 L399.861596,309.480987 C399.861596,310.38541 399.545053,311.169233 398.911956,311.832477 C398.278859,312.495721 397.510111,312.827338 396.605687,312.827338 C396.364507,312.827338 396.183625,312.947926 396.063035,313.189106 C395.399791,314.696479 394.736557,316.29427 394.073313,317.982528 C394.013018,318.163413 394.028091,318.314148 394.118534,318.434738 C394.208976,318.555328 394.314491,318.615622 394.435081,318.615622 L395.3395,318.615622 Z M417.497773,341.316547 C417.075709,341.316547 416.86468,341.527576 416.86468,341.94964 L416.86468,346.290853 C416.86468,346.712917 417.075709,346.923947 417.497773,346.923947 L428.260363,346.923947 C428.682428,346.923947 428.893457,346.712917 428.893457,346.290853 L428.893457,341.94964 C428.893457,341.527576 428.682428,341.316547 428.260363,341.316547 L417.497773,341.316547 Z M374.537855,341.316547 C374.115791,341.316547 373.904762,341.527576 373.904762,341.94964 L373.904762,346.290853 C373.904762,346.712917 374.115791,346.923947 374.537855,346.923947 L385.210003,346.923947 C385.692363,346.923947 385.933539,346.712917 385.933539,346.290853 L385.933539,341.94964 C385.933539,341.527576 385.692363,341.316547 385.210003,341.316547 L374.537855,341.316547 Z M435.043508,371.88592 L435.947927,371.88592 C436.128812,371.88592 436.309694,371.825626 436.490579,371.705036 C436.792054,371.584446 437.003083,371.34327 437.123672,370.981501 C437.183967,370.860911 437.274408,370.529294 437.394998,369.986639 C437.515588,369.2631 437.606029,368.238102 437.666324,366.911614 C437.726619,365.946895 438.178824,365.253514 439.022953,364.831449 C439.867082,364.409385 440.681051,364.439532 441.464885,364.921891 C441.826655,365.102776 442.188419,365.313805 442.550188,365.554985 C443.997267,366.338819 445.142853,367.393964 445.986982,368.720452 C446.650226,369.805761 446.981843,370.951347 446.981843,372.157246 L446.981843,373.061665 C446.680368,375.292577 446.318604,377.010957 445.89654,378.216855 C445.233296,380.266882 444.087709,381.80438 442.459746,382.829394 C441.072963,383.794112 439.203849,384.276465 436.852347,384.276465 L431.335389,384.276465 C428.200053,384.276465 425.848586,383.402201 424.280918,381.653649 C423.376494,380.68893 422.773554,379.588564 422.472079,378.352518 C422.170605,377.116472 422.01987,374.991108 422.01987,371.976362 L422.01987,357.415211 C422.01987,356.993146 421.808841,356.782117 421.386776,356.782117 L420.301473,356.782117 C419.879409,356.782117 419.638233,357.023293 419.577938,357.505653 C419.216168,363.83662 418.130876,368.976685 416.322028,372.926002 C414.51318,376.87532 411.227156,380.116123 406.463857,382.64851 C405.680023,383.010279 404.896201,383.191161 404.112367,383.191161 C403.509418,383.191161 402.906478,383.10072 402.303529,382.919836 C400.97704,382.377181 399.861601,381.472771 398.957177,380.206578 C398.535113,379.483039 398.052761,378.75951 397.510106,378.035971 C397.268927,377.674202 396.937309,377.583761 396.515245,377.764645 C394.163743,378.729364 390.938013,379.995539 386.837958,381.563207 C386.235009,381.804386 385.662216,381.924974 385.119561,381.924974 C384.335727,381.924974 383.612199,381.744092 382.948955,381.382323 C381.622467,380.719079 380.778351,379.69408 380.416581,378.307297 L379.240836,373.966084 C379.059951,373.363135 379.135319,372.775268 379.466941,372.202467 C379.798563,371.629665 380.265841,371.252827 380.868791,371.071942 C381.10997,371.011648 381.230558,370.860912 381.230558,370.619733 L381.230558,357.415211 C381.230558,356.993146 380.989382,356.782117 380.507023,356.782117 L378.607742,356.782117 C378.185678,356.782117 377.944502,356.993146 377.884207,357.415211 C377.401848,362.962344 376.452217,367.725571 375.035286,371.705036 C373.618355,375.684501 371.281962,379.12126 368.026036,382.015416 C367.181907,382.67866 366.277497,383.010277 365.312778,383.010277 C365.011304,383.010277 364.679685,382.949983 364.317917,382.829394 C362.931134,382.527919 361.815695,381.774244 360.971566,380.568345 L359.886262,379.121274 C359.223018,378.216851 358.891401,377.252146 358.891401,376.227133 C358.891401,375.985953 358.921548,375.774924 358.981843,375.594039 C359.102433,374.267551 359.675226,373.152111 360.70024,372.247688 C362.629677,370.378545 364.01644,368.253181 364.860569,365.871531 C365.704698,363.489882 366.277491,360.610843 366.578965,357.234327 C366.63926,356.932852 366.518672,356.782117 366.217198,356.782117 C365.131889,356.782117 364.227479,356.40528 363.50394,355.651593 C362.780401,354.897906 362.418637,354.00857 362.418637,352.983556 L362.418637,336.884892 C362.418637,335.437814 362.931136,334.186713 363.956149,333.131552 C364.981163,332.076391 366.247337,331.548818 367.754711,331.548818 L392.807126,331.548818 C394.254204,331.548818 395.505305,332.076391 396.560466,333.131552 C397.615627,334.186713 398.1432,335.437814 398.1432,336.884892 L398.1432,352.079137 C398.1432,353.405625 397.690995,354.521064 396.786571,355.425488 C395.882147,356.329912 394.766708,356.782117 393.440219,356.782117 C393.07845,356.782117 392.897568,356.993146 392.897568,357.415211 L392.897568,366.368962 C392.897568,366.549847 392.957862,366.685508 393.078452,366.775951 C393.199041,366.866393 393.349776,366.881467 393.530661,366.821172 L394.615964,366.459404 C395.098324,366.27852 395.610823,366.188078 396.153477,366.188078 C396.937311,366.188078 397.690986,366.399107 398.414526,366.821172 C399.680719,367.544711 400.464541,368.599856 400.766016,369.986639 L401.037342,371.43371 C401.157931,371.855775 401.399107,371.946216 401.760877,371.705036 C403.991789,370.137368 405.529287,368.238106 406.373416,366.007194 C407.217544,363.776282 407.760191,360.821875 408.00137,357.143885 C408.061665,356.902705 407.971224,356.782117 407.730045,356.782117 C406.885916,356.782117 406.192534,356.495721 405.64988,355.922919 C405.107226,355.350117 404.835903,354.671809 404.835903,353.887975 L404.835903,336.884892 C404.835903,335.437814 405.348402,334.186713 406.373416,333.131552 C407.398429,332.076391 408.664604,331.548818 410.171977,331.548818 L436.400137,331.548818 C437.90751,331.548818 439.173684,332.076391 440.198698,333.131552 C441.223712,334.186713 441.736211,335.437814 441.736211,336.884892 L441.736211,351.446043 C441.736211,352.893121 441.223712,354.144222 440.198698,355.199383 C439.173684,356.254545 437.90751,356.782117 436.400137,356.782117 L434.500856,356.782117 C434.018497,356.782117 433.777321,356.993146 433.777321,357.415211 L433.777321,370.167523 C433.777321,370.589588 433.837615,370.981499 433.958205,371.343268 C434.139089,371.705038 434.500854,371.88592 435.043508,371.88592 Z M542.247345,314.364851 C542.729704,314.364851 542.97088,314.123675 542.97088,313.641316 L542.97088,311.922919 C542.97088,311.440559 542.729704,311.199383 542.247345,311.199383 L540.528948,311.199383 C540.106884,311.199383 539.895855,311.440559 539.895855,311.922919 L539.895855,313.641316 C539.895855,314.123675 540.106884,314.364851 540.528948,314.364851 L542.247345,314.364851 Z M554.366564,329.28777 C554.848923,329.28777 555.090099,329.046594 555.090099,328.564234 L555.090099,324.584789 C555.090099,324.10243 554.848923,323.861254 554.366564,323.861254 L552.376841,323.861254 C551.954777,323.861254 551.743748,324.10243 551.743748,324.584789 L551.743748,328.564234 C551.743748,329.046594 551.954777,329.28777 552.376841,329.28777 L554.366564,329.28777 Z M528.771497,323.861254 C528.349433,323.861254 528.138404,324.10243 528.138404,324.584789 L528.138404,328.564234 C528.138404,329.046594 528.349433,329.28777 528.771497,329.28777 L530.30901,329.28777 C530.731074,329.28777 530.942103,329.046594 530.942103,328.564234 L530.942103,324.584789 C530.942103,324.10243 530.731074,323.861254 530.30901,323.861254 L528.771497,323.861254 Z M542.97088,324.584789 C542.97088,324.10243 542.729704,323.861254 542.247345,323.861254 L540.438506,323.861254 C540.016442,323.861254 539.805413,324.10243 539.805413,324.584789 L539.805413,328.564234 C539.805413,329.046594 540.016442,329.28777 540.438506,329.28777 L542.247345,329.28777 C542.729704,329.28777 542.97088,329.046594 542.97088,328.564234 L542.97088,324.584789 Z M528.952381,314.364851 C529.374445,314.364851 529.585474,314.123675 529.585474,313.641316 L529.585474,311.922919 C529.585474,311.440559 529.374445,311.199383 528.952381,311.199383 L519.99863,311.199383 C518.491257,311.199383 517.225082,310.686884 516.200069,309.661871 C515.175055,308.636857 514.662556,307.400829 514.662556,305.953751 C514.662556,304.506673 515.175055,303.255572 516.200069,302.200411 C517.225082,301.14525 518.491257,300.617677 519.99863,300.617677 L563.682083,300.617677 C565.129161,300.617677 566.365188,301.14525 567.390202,302.200411 C568.415216,303.255572 568.927715,304.506673 568.927715,305.953751 C568.927715,307.400829 568.415216,308.636857 567.390202,309.661871 C566.365188,310.686884 565.129161,311.199383 563.682083,311.199383 L553.914354,311.199383 C553.431995,311.199383 553.190819,311.440559 553.190819,311.922919 L553.190819,313.641316 C553.190819,314.123675 553.431995,314.364851 553.914354,314.364851 L561.240151,314.364851 C562.687229,314.364851 563.93833,314.892424 564.993491,315.947585 C566.048652,317.002746 566.576225,318.253847 566.576225,319.700925 L566.576225,333.448099 C566.576225,334.955472 566.048652,336.221646 564.993491,337.24666 C563.93833,338.271674 562.687229,338.784173 561.240151,338.784173 L522.531004,338.784173 C521.023631,338.784173 519.757456,338.271674 518.732443,337.24666 C517.707429,336.221646 517.19493,334.955472 517.19493,333.448099 L517.19493,319.700925 C517.19493,318.253847 517.707429,317.002746 518.732443,315.947585 C519.757456,314.892424 521.023631,314.364851 522.531004,314.364851 L528.952381,314.364851 Z M562.687222,342.40185 C563.65194,343.306274 564.134293,344.40664 564.134293,345.70298 C564.134293,346.999321 563.667014,348.114761 562.732443,349.049332 C561.797871,349.983903 560.667358,350.451182 559.34087,350.451182 L525.063378,350.451182 C523.797184,350.451182 522.696819,349.983903 521.762247,349.049332 C520.827676,348.114761 520.360397,346.999321 520.360397,345.70298 C520.360397,344.40664 520.827676,343.2912 521.762247,342.356629 C522.696819,341.422058 523.797184,340.954779 525.063378,340.954779 L559.34087,340.954779 C560.667358,340.954779 561.782798,341.437131 562.687222,342.40185 Z M513.396369,344.029805 C514.180203,345.356293 514.572114,346.743055 514.572114,348.190134 C514.572114,349.938686 514.059615,351.536478 513.034601,352.983556 L512.401507,353.797533 C511.858853,354.641662 511.105178,355.06372 510.140459,355.06372 C510.019869,355.06372 509.869134,355.033573 509.688249,354.973279 C508.602941,354.852689 507.819119,354.279895 507.336759,353.254882 C507.035285,352.531343 506.432344,351.114433 505.527921,349.004111 C505.467626,348.943816 505.407332,348.913669 505.347037,348.913669 C505.286742,348.913669 505.256595,348.943816 505.256595,349.004111 L505.256595,379.663926 C505.256595,381.171299 504.729022,382.437473 503.673861,383.462487 C502.6187,384.487501 501.367599,385 499.920521,385 L498.47345,385 C496.966077,385 495.699902,384.487501 494.674889,383.462487 C493.649875,382.437473 493.137376,381.171299 493.137376,379.663926 L493.137376,355.425488 C493.137376,355.365193 493.092155,355.319973 493.001713,355.289825 C492.911271,355.259678 492.86605,355.274751 492.86605,355.335046 C491.599857,358.832152 490.303535,361.846853 488.977047,364.379239 C488.494688,365.283663 487.801302,365.735868 486.896882,365.735868 L486.535115,365.735868 C485.510101,365.615279 484.756426,365.072632 484.274066,364.107914 C483.912297,363.32408 483.520386,362.540257 483.098321,361.756423 C482.374782,360.309345 482.013018,358.862289 482.013018,357.415211 C482.013018,355.787248 482.465223,354.159309 483.369647,352.531346 C487.107932,345.778315 490.002045,337.879799 492.052073,328.83556 C492.112368,328.413496 491.931485,328.202467 491.509421,328.202467 L488.16307,328.202467 C486.715991,328.202467 485.464891,327.674894 484.409729,326.619733 C483.354568,325.564572 482.826996,324.313471 482.826996,322.866393 L482.826996,321.057554 C482.826996,319.610476 483.354568,318.359375 484.409729,317.304214 C485.464891,316.249053 486.715991,315.72148 488.16307,315.72148 L492.41384,315.72148 C492.8962,315.72148 493.137376,315.510451 493.137376,315.088386 L493.137376,302.336074 C493.137376,300.888996 493.649875,299.637895 494.674889,298.582734 C495.699902,297.527573 496.966077,297 498.47345,297 L499.920521,297 C501.367599,297 502.6187,297.527573 503.673861,298.582734 C504.729022,299.637895 505.256595,300.888996 505.256595,302.336074 L505.256595,315.088386 C505.256595,315.510451 505.467624,315.72148 505.889688,315.72148 L508.422062,315.72148 C509.869141,315.72148 511.120241,316.249053 512.175403,317.304214 C513.230564,318.359375 513.758136,319.610476 513.758136,321.057554 L513.758136,322.866393 C513.758136,324.313471 513.230564,325.564572 512.175403,326.619733 C511.120241,327.674894 509.869141,328.202467 508.422062,328.202467 L505.889688,328.202467 C505.467624,328.202467 505.256595,328.413496 505.256595,328.83556 L505.256595,330.644399 C505.256595,331.066463 505.377183,331.458374 505.618362,331.820144 C507.366915,334.352531 509.959558,338.422377 513.396369,344.029805 Z M519.54642,367.363823 C520.511139,366.157925 521.747166,365.40425 523.254539,365.102775 C523.676604,364.982185 524.128809,364.921891 524.611168,364.921891 C525.575887,364.921891 526.510444,365.163067 527.414868,365.645427 L528.319287,366.097636 C529.585481,366.76088 530.369303,367.785879 530.670778,369.172662 C530.791368,369.534431 530.851662,369.896196 530.851662,370.257965 C530.851662,371.222684 530.520044,372.096947 529.8568,372.880781 C527.625888,375.594053 525.304568,378.03596 522.892771,380.206578 C521.928053,381.050707 520.84276,381.472765 519.636862,381.472765 C519.455977,381.472765 519.244948,381.442618 519.003768,381.382323 C517.55669,381.261733 516.290516,380.658793 515.205207,379.573484 C515.024322,379.332304 514.813293,379.121275 514.572114,378.940391 C513.66769,378.035967 513.215485,376.950674 513.215485,375.684481 C513.215485,374.237403 513.758131,373.061669 514.84344,372.157246 C516.471402,370.649873 518.039047,369.052081 519.54642,367.363823 Z M567.75197,353.978417 C568.776984,355.003431 569.289483,356.239458 569.289483,357.686536 C569.289483,359.133615 568.776984,360.384716 567.75197,361.439877 C566.726956,362.495038 565.490929,363.02261 564.043851,363.02261 L548.487838,363.02261 C548.065774,363.02261 547.854745,363.23364 547.854745,363.655704 L547.854745,373.604317 C547.854745,376.257293 547.568348,378.337437 546.995546,379.84481 C546.422745,381.352183 545.382673,382.527916 543.8753,383.372045 C542.247337,384.216174 540.106899,384.75882 537.453923,385 L536.911271,385 C535.645078,385 534.469344,384.577942 533.384036,383.733813 C532.178137,382.708799 531.334021,381.442625 530.851662,379.935252 C530.791367,379.754367 530.731073,379.543338 530.670778,379.302158 C530.489893,378.940389 530.399452,378.548478 530.399452,378.126413 C530.399452,377.402874 530.640628,376.73964 531.122987,376.136691 C531.786231,375.111677 532.750936,374.569031 534.017129,374.508736 L534.198013,374.508736 C534.680372,374.508736 535.01199,374.433368 535.192874,374.282631 C535.373759,374.131894 535.4642,373.845497 535.4642,373.423433 L535.4642,363.655704 C535.4642,363.23364 535.223024,363.02261 534.740665,363.02261 L519.455978,363.02261 C518.0089,363.02261 516.772873,362.495038 515.747859,361.439877 C514.722845,360.384716 514.210346,359.133615 514.210346,357.686536 C514.210346,356.239458 514.722845,355.003431 515.747859,353.978417 C516.772873,352.953404 518.0089,352.440904 519.455978,352.440904 L564.043851,352.440904 C565.490929,352.440904 566.726956,352.953404 567.75197,353.978417 Z M552.195958,373.242549 C551.412124,372.39842 551.020212,371.403569 551.020212,370.257965 C551.020212,370.07708 551.050359,369.866051 551.110654,369.624872 C551.231244,368.238088 551.864331,367.182943 553.009935,366.459404 L553.552587,366.097636 C554.69819,365.374097 555.934217,365.012333 557.260706,365.012333 L557.893799,365.012333 C559.461467,365.132923 560.787936,365.735863 561.873244,366.821172 C563.802682,368.750609 565.490914,370.589577 566.937992,372.338129 C567.661532,373.242553 568.023296,374.207258 568.023296,375.232271 C568.023296,375.533746 567.993149,375.865363 567.932854,376.227133 C567.631379,377.613916 566.877704,378.759502 565.671805,379.663926 L564.405618,380.477903 C563.501195,381.080853 562.53649,381.382323 561.511477,381.382323 C561.149707,381.382323 560.787943,381.352176 560.426173,381.291881 C559.03939,380.990406 557.893804,380.266878 556.98938,379.121274 C555.602597,377.312427 554.004805,375.352871 552.195958,373.242549 Z" id="競標"></path>
        </g>
    </g>
</svg>