<?xml version="1.0" encoding="UTF-8"?>
<svg width="369px" height="71px" viewBox="0 0 369 71" version="1.1" xmlns="http://www.w3.org/2000/svg" xmlns:xlink="http://www.w3.org/1999/xlink">
    <!-- Generator: Sketch 57 (83077) - https://sketch.com -->
    <title>肥美牛肉</title>
    <desc>Created with Sketch.</desc>
    <g id="Website" stroke="none" stroke-width="1" fill="none" fill-rule="evenodd">
        <g id="Dribble" transform="translate(-228.000000, -242.000000)" fill="#FFFFFF" fill-rule="nonzero" stroke="#111111" stroke-width="0.6">
            <path d="M257.664,251.504 L257.664,301.688 C257.664,305.72 257.016,307.736 255.144,309.176 C253.632,310.328 251.544,310.832 247.656,310.832 C247.296,310.832 245.856,310.832 243.84,310.76 C243.408,306.656 242.76,303.92 241.608,301.184 C240.6,306.08 239.736,308.528 237.72,312.272 C234.336,307.592 232.896,306.008 229.08,302.912 C230.88,299.312 231.816,296.36 232.608,291.68 C233.544,285.632 234.048,274.472 234.048,259.568 C234.048,251.72 233.976,248.984 233.544,245.456 C236.064,245.744 237.864,245.816 241.104,245.816 L251.76,245.816 C254.928,245.816 256.44,245.744 257.88,245.528 C257.736,247.184 257.664,248.552 257.664,251.504 Z M243.552,279.296 L247.944,279.296 L247.944,272.312 L243.624,272.312 L243.552,279.296 Z M247.944,288.872 L243.048,288.872 C242.832,293.192 242.328,297.224 241.752,300.248 C243.48,300.392 244.992,300.536 245.712,300.536 C247.584,300.536 247.944,300.248 247.944,299.024 L247.944,288.872 Z M247.944,262.664 L247.944,255.824 L243.768,255.824 L243.768,262.664 L247.944,262.664 Z M270.984,281.96 L270.984,298.016 C270.984,299.528 271.272,299.96 272.424,300.248 C273.216,300.392 275.808,300.536 278.688,300.536 C284.16,300.536 285.816,300.176 286.464,298.952 C287.04,297.944 287.256,295.136 287.256,289.664 L287.256,287.72 C291.288,289.52 293.664,290.24 298.128,291.104 C297.408,309.752 296.4,310.688 277.248,310.688 C262.992,310.688 260.472,309.464 260.472,302.48 L260.472,251.72 C260.472,249.272 260.4,247.76 260.256,245.888 C262.344,246.104 264.792,246.176 267.024,246.176 L288.912,246.176 C291.36,246.176 293.952,246.032 295.536,245.888 C295.32,248.48 295.248,250.64 295.248,252.8 L295.248,274.976 C295.248,278.144 295.32,280.52 295.536,282.248 C293.16,282.032 291,281.96 289.128,281.96 L270.984,281.96 Z M282,256.256 L282,272.384 L285.24,272.384 L285.24,256.256 L282,256.256 Z M273.72,272.384 L273.72,256.256 L270.408,256.256 L270.408,272.384 L273.72,272.384 Z M358.157053,281.6 L339.941053,281.6 C336.917053,281.6 334.325053,281.744 331.733053,281.96 L331.733053,272.312 C334.109053,272.6 336.629053,272.744 339.941053,272.744 L358.661053,272.744 L358.661053,270.08 L343.325053,270.08 C340.517053,270.08 338.789053,270.152 336.629053,270.368 L336.629053,261.872 C338.717053,262.088 340.229053,262.16 343.325053,262.16 L358.661053,262.16 L358.661053,259.496 L342.029053,259.496 C338.285053,259.496 336.413053,259.568 333.821053,259.784 L333.821053,250.28 C336.341053,250.568 338.573053,250.712 342.029053,250.712 L348.869053,250.712 C347.573053,248.624 346.709053,247.4 345.269053,245.6 L355.997053,242.936 C357.797053,245.744 359.381053,248.408 360.533053,250.712 L368.237053,250.712 C369.605053,248.624 370.829053,246.392 372.125053,243.152 L383.069053,245.6 C381.917053,247.544 380.909053,249.056 379.685053,250.712 L386.813053,250.712 C390.485053,250.712 392.717053,250.568 395.021053,250.28 L395.021053,259.784 C392.645053,259.568 390.557053,259.496 386.813053,259.496 L369.605053,259.496 L369.605053,262.16 L385.445053,262.16 C388.469053,262.16 390.053053,262.088 392.141053,261.872 L392.141053,270.368 C389.981053,270.152 388.325053,270.08 385.445053,270.08 L369.605053,270.08 L369.605053,272.744 L388.901053,272.744 C392.573053,272.744 394.805053,272.6 397.109053,272.312 L397.109053,281.96 C394.877053,281.672 392.861053,281.6 388.901053,281.6 L369.389053,281.6 C369.245053,282.896 369.173053,283.328 369.029053,284.408 L387.965053,284.408 C391.925053,284.408 393.725053,284.336 396.173053,284.12 L396.173053,294.056 C393.509053,293.768 390.485053,293.624 387.029053,293.624 L374.141053,293.624 C376.805053,295.928 379.613053,297.44 383.501053,298.664 C387.893053,300.104 391.925053,300.68 398.621053,300.824 C396.389053,305.072 395.453053,307.52 394.157053,311.984 C386.597053,310.976 381.701053,309.608 376.085053,306.872 C370.685053,304.28 367.085053,301.688 363.557053,297.872 C357.509053,305.792 349.589053,309.68 334.973053,311.912 C333.821053,307.88 332.885053,305.72 330.437053,301.256 C342.317053,300.248 348.221053,298.232 353.045053,293.624 L341.669053,293.624 C338.213053,293.624 335.189053,293.768 332.597053,294.056 L332.597053,284.12 C335.117053,284.336 337.277053,284.408 340.733053,284.408 L357.797053,284.408 C358.013053,283.04 358.085053,282.608 358.157053,281.6 Z M459.874105,267.056 L447.562105,267.056 C444.754105,271.52 443.098105,273.752 440.002105,276.992 C437.050105,273.968 434.602105,272.024 430.858105,269.576 C437.626105,263.24 442.810105,254.096 444.106105,246.104 L455.698105,249.56 C455.194105,250.712 455.050105,251.144 454.330105,252.944 C453.754105,254.6 453.538105,255.176 452.962105,256.616 L459.874105,256.616 L459.874105,251.792 C459.874105,248.192 459.730105,246.176 459.442105,243.944 L471.898105,243.944 C471.538105,245.96 471.466105,248.048 471.466105,251.72 L471.466105,256.616 L484.498105,256.616 C488.458105,256.616 490.978105,256.472 493.210105,256.184 L493.210105,267.488 C490.834105,267.2 488.170105,267.056 484.426105,267.056 L471.466105,267.056 L471.466105,278.576 L488.170105,278.576 C491.914105,278.576 494.938105,278.432 497.674105,278.072 L497.674105,289.736 C495.010105,289.376 491.698105,289.232 488.170105,289.232 L471.466105,289.232 L471.466105,302.12 C471.466105,306.584 471.538105,309.464 471.898105,311.552 L459.442105,311.552 C459.730105,309.176 459.874105,306.44 459.874105,302.12 L459.874105,289.232 L441.802105,289.232 C438.202105,289.232 435.178105,289.376 432.370105,289.736 L432.370105,278.072 C435.250105,278.432 438.202105,278.576 441.802105,278.576 L459.874105,278.576 L459.874105,267.056 Z M596.223158,260.216 L596.223158,303.2 C596.223158,306.656 594.783158,309.104 591.975158,310.328 C590.607158,310.976 588.591158,311.192 585.063158,311.192 C583.839158,311.192 579.231158,311.048 576.279158,310.904 C575.991158,306.8 575.343158,304.352 573.831158,300.536 C575.127158,300.68 575.559158,300.68 576.711158,300.824 C572.391158,298.592 568.287158,295.496 564.831158,291.896 C561.375158,297.08 557.919158,300.176 551.007158,304.136 C549.135158,301.04 547.839158,299.384 545.607158,296.864 L545.607158,302.624 C545.607158,307.304 545.679158,309.392 545.895158,311.768 L534.015158,311.768 C534.375158,309.104 534.519158,306.44 534.519158,303.128 L534.519158,258.56 C534.519158,255.032 534.447158,253.448 534.159158,251.072 C536.823158,251.288 538.911158,251.36 543.735158,251.36 L559.791158,251.36 C559.935158,249.272 559.935158,248.912 559.935158,245.816 C559.935158,245.096 559.935158,244.664 559.863158,243.872 L571.527158,244.304 C571.311158,245.672 571.167158,246.896 570.951158,249.56 C570.879158,250.28 570.879158,250.568 570.807158,251.36 L587.511158,251.36 C592.623158,251.36 594.495158,251.288 596.583158,251.072 C596.295158,253.304 596.223158,255.32 596.223158,260.216 Z M585.063158,292.184 L585.063158,274.544 C583.623158,277.136 582.687158,279.008 581.391158,282.392 C577.143158,280.664 574.551158,279.152 570.951158,276.416 C570.663158,277.28 570.591158,277.424 570.159158,279.08 C569.871158,280.304 569.655158,280.952 569.223158,282.248 C571.527158,284.912 574.119158,287 577.719158,289.016 C580.023158,290.312 581.751158,291.104 585.063158,292.184 Z M585.063158,299.888 L585.063158,292.832 C582.831158,295.64 581.535158,297.8 579.879158,301.184 C581.823158,301.256 582.903158,301.256 582.975158,301.256 C584.559158,301.256 585.063158,300.968 585.063158,299.888 Z M560.295158,275.48 L570.663158,276.272 C568.143158,274.328 566.199158,272.6 564.399158,270.728 C563.103158,272.6 562.095158,273.68 560.295158,275.48 Z M545.607158,275.984 L545.607158,294.056 C552.519158,290.6 556.623158,286.568 558.783158,281.168 C559.431158,279.512 559.935158,277.352 560.007158,275.696 C557.199158,278.36 554.967158,279.872 550.215158,282.536 C548.703158,279.8 547.623158,278.36 545.607158,275.984 Z M585.063158,261.656 L569.367158,261.656 C573.543158,266.048 579.303158,269.72 585.063158,271.592 L585.063158,261.656 Z M545.607158,261.656 L545.607158,272.672 C552.087158,269.288 555.255158,266.408 557.487158,261.656 L545.607158,261.656 Z" id="肥美牛肉"></path>
        </g>
    </g>
</svg>