<?xml version="1.0" encoding="UTF-8"?>
<svg width="356px" height="71px" viewBox="0 0 356 71" version="1.1" xmlns="http://www.w3.org/2000/svg" xmlns:xlink="http://www.w3.org/1999/xlink">
    <!-- Generator: Sketch 57 (83077) - https://sketch.com -->
    <title>肥美牛肉</title>
    <desc>Created with Sketch.</desc>
    <defs>
        <path d="M250.972,251.004 L250.972,301.188 C250.972,305.22 250.324,307.236 248.452,308.676 C246.94,309.828 244.852,310.332 240.964,310.332 C240.604,310.332 239.164,310.332 237.148,310.26 C236.716,306.156 236.068,303.42 234.916,300.684 C233.908,305.58 233.044,308.028 231.028,311.772 C227.644,307.092 226.204,305.508 222.388,302.412 C224.188,298.812 225.124,295.86 225.916,291.18 C226.852,285.132 227.356,273.972 227.356,259.068 C227.356,251.22 227.284,248.484 226.852,244.956 C229.372,245.244 231.172,245.316 234.412,245.316 L245.068,245.316 C248.236,245.316 249.748,245.244 251.188,245.028 C251.044,246.684 250.972,248.052 250.972,251.004 Z M236.86,278.796 L241.252,278.796 L241.252,271.812 L236.932,271.812 L236.86,278.796 Z M241.252,288.372 L236.356,288.372 C236.14,292.692 235.636,296.724 235.06,299.748 C236.788,299.892 238.3,300.036 239.02,300.036 C240.892,300.036 241.252,299.748 241.252,298.524 L241.252,288.372 Z M241.252,262.164 L241.252,255.324 L237.076,255.324 L237.076,262.164 L241.252,262.164 Z M264.292,281.46 L264.292,297.516 C264.292,299.028 264.58,299.46 265.732,299.748 C266.524,299.892 269.116,300.036 271.996,300.036 C277.468,300.036 279.124,299.676 279.772,298.452 C280.348,297.444 280.564,294.636 280.564,289.164 L280.564,287.22 C284.596,289.02 286.972,289.74 291.436,290.604 C290.716,309.252 289.708,310.188 270.556,310.188 C256.3,310.188 253.78,308.964 253.78,301.98 L253.78,251.22 C253.78,248.772 253.708,247.26 253.564,245.388 C255.652,245.604 258.1,245.676 260.332,245.676 L282.22,245.676 C284.668,245.676 287.26,245.532 288.844,245.388 C288.628,247.98 288.556,250.14 288.556,252.3 L288.556,274.476 C288.556,277.644 288.628,280.02 288.844,281.748 C286.468,281.532 284.308,281.46 282.436,281.46 L264.292,281.46 Z M275.308,255.756 L275.308,271.884 L278.548,271.884 L278.548,255.756 L275.308,255.756 Z M267.028,271.884 L267.028,255.756 L263.716,255.756 L263.716,271.884 L267.028,271.884 Z M348.044,281.1 L329.828,281.1 C326.804,281.1 324.212,281.244 321.62,281.46 L321.62,271.812 C323.996,272.1 326.516,272.244 329.828,272.244 L348.548,272.244 L348.548,269.58 L333.212,269.58 C330.404,269.58 328.676,269.652 326.516,269.868 L326.516,261.372 C328.604,261.588 330.116,261.66 333.212,261.66 L348.548,261.66 L348.548,258.996 L331.916,258.996 C328.172,258.996 326.3,259.068 323.708,259.284 L323.708,249.78 C326.228,250.068 328.46,250.212 331.916,250.212 L338.756,250.212 C337.46,248.124 336.596,246.9 335.156,245.1 L345.884,242.436 C347.684,245.244 349.268,247.908 350.42,250.212 L358.124,250.212 C359.492,248.124 360.716,245.892 362.012,242.652 L372.956,245.1 C371.804,247.044 370.796,248.556 369.572,250.212 L376.7,250.212 C380.372,250.212 382.604,250.068 384.908,249.78 L384.908,259.284 C382.532,259.068 380.444,258.996 376.7,258.996 L359.492,258.996 L359.492,261.66 L375.332,261.66 C378.356,261.66 379.94,261.588 382.028,261.372 L382.028,269.868 C379.868,269.652 378.212,269.58 375.332,269.58 L359.492,269.58 L359.492,272.244 L378.788,272.244 C382.46,272.244 384.692,272.1 386.996,271.812 L386.996,281.46 C384.764,281.172 382.748,281.1 378.788,281.1 L359.276,281.1 C359.132,282.396 359.06,282.828 358.916,283.908 L377.852,283.908 C381.812,283.908 383.612,283.836 386.06,283.62 L386.06,293.556 C383.396,293.268 380.372,293.124 376.916,293.124 L364.028,293.124 C366.692,295.428 369.5,296.94 373.388,298.164 C377.78,299.604 381.812,300.18 388.508,300.324 C386.276,304.572 385.34,307.02 384.044,311.484 C376.484,310.476 371.588,309.108 365.972,306.372 C360.572,303.78 356.972,301.188 353.444,297.372 C347.396,305.292 339.476,309.18 324.86,311.412 C323.708,307.38 322.772,305.22 320.324,300.756 C332.204,299.748 338.108,297.732 342.932,293.124 L331.556,293.124 C328.1,293.124 325.076,293.268 322.484,293.556 L322.484,283.62 C325.004,283.836 327.164,283.908 330.62,283.908 L347.684,283.908 C347.9,282.54 347.972,282.108 348.044,281.1 Z M431.22,267.06 C428.772,271.812 426.108,275.916 423.3,279.516 L418.188,273.324 C423.156,267.348 427.548,258.852 431.292,247.764 L438.42,249.42 C437.196,253.092 435.9,256.548 434.604,259.716 L449.22,259.716 L449.22,245.172 L456.78,245.172 L456.78,259.716 L480.18,259.716 L480.18,267.06 L456.78,267.06 L456.78,282.756 L484.14,282.756 L484.14,290.172 L456.78,290.172 L456.78,311.7 L449.22,311.7 L449.22,290.172 L419.196,290.172 L419.196,282.756 L449.22,282.756 L449.22,267.06 L431.22,267.06 Z M546.724,269.22 C542.98,275.628 538.3,280.236 532.612,282.972 L528.58,276.348 C534.34,273.756 538.732,269.148 541.9,262.524 L526.564,262.524 L526.564,311.988 L519.004,311.988 L519.004,255.252 L544.636,255.252 C545.5,252.156 546.22,248.844 546.796,245.316 L554.212,245.964 C553.636,249.276 552.988,252.372 552.268,255.252 L577.612,255.252 L577.612,301.692 C577.612,307.884 574.804,311.052 569.332,311.052 L558.604,311.052 L556.588,303.78 L566.884,304.068 C568.972,304.068 570.052,302.7 570.052,300.036 L570.052,262.524 L549.892,262.524 L549.604,263.244 C555.652,266.7 561.7,270.588 567.82,274.908 L563.572,281.316 C556.732,275.916 551.116,271.884 546.724,269.22 Z M547.516,289.812 C543.916,295.428 538.948,299.748 532.756,302.844 L528.94,296.004 C537.868,291.684 543.412,284.988 545.644,275.916 L552.916,276.852 C552.268,279.372 551.548,281.676 550.684,283.836 C556.084,287.076 561.628,290.748 567.244,294.852 L562.996,301.188 C556.732,296.148 551.548,292.332 547.516,289.812 Z" id="path-1"></path>
    </defs>
    <g id="Website" stroke="none" stroke-width="1" fill="none" fill-rule="evenodd">
        <g id="Dribble" transform="translate(-222.000000, -242.000000)" fill-rule="nonzero">
            <g id="肥美牛肉">
                <use fill="#5F5E5E" xlink:href="#path-1"></use>
                <use stroke="#111111" stroke-width="0.7" fill="#FFFFFF" xlink:href="#path-1"></use>
            </g>
        </g>
    </g>
</svg>