<?xml version="1.0" encoding="UTF-8"?>
<svg width="362px" height="73px" viewBox="0 0 362 73" version="1.1" xmlns="http://www.w3.org/2000/svg" xmlns:xlink="http://www.w3.org/1999/xlink">
    <!-- Generator: Sketch 56.3 (81716) - https://sketch.com -->
    <title>肥美和牛</title>
    <desc>Created with Sketch.</desc>
    <g id="Website" stroke="none" stroke-width="1" fill="none" fill-rule="evenodd">
        <g id="Desktop-HD-Copy" transform="translate(-283.000000, -587.000000)" fill="#FFFFFF" fill-rule="nonzero" stroke="#312A2A" stroke-width="0.8">
            <path d="M296.622821,623.372425 C296.622821,623.752775 296.789222,623.942948 297.122029,623.942948 L301.25832,623.942948 C301.638671,623.942948 301.828843,623.752775 301.828843,623.372425 L301.828843,617.381933 C301.828843,617.001583 301.638671,616.81141 301.25832,616.81141 L297.193344,616.81141 C296.860537,616.81141 296.694136,617.001583 296.694136,617.381933 L296.694136,618.309033 C296.694136,620.496049 296.670365,622.183829 296.622821,623.372425 Z M301.828843,601.122029 C301.828843,600.741678 301.638671,600.551506 301.25832,600.551506 L297.193344,600.551506 C296.860537,600.551506 296.694136,600.741678 296.694136,601.122029 L296.694136,606.755943 C296.694136,607.08875 296.860537,607.255151 297.193344,607.255151 L301.25832,607.255151 C301.638671,607.255151 301.828843,607.08875 301.828843,606.755943 L301.828843,601.122029 Z M307.391442,590.995246 C308.532494,590.995246 309.519013,591.399362 310.35103,592.207607 C311.183047,593.015852 311.599049,594.014257 311.599049,595.202853 L311.599049,646.977813 C311.599049,649.450092 311.373219,651.411245 310.921553,652.861331 C310.469887,654.311418 309.625997,655.416795 308.389857,656.177496 C306.868455,657.22346 304.752787,657.865292 302.042789,658.103011 L301.686212,658.103011 C300.687792,658.103011 299.784473,657.770209 298.976228,657.104596 C298.025352,656.296351 297.407291,655.297946 297.122029,654.10935 C296.979397,653.348649 296.789225,652.611731 296.551506,651.898574 C296.456418,651.565767 296.408875,651.256737 296.408875,650.971474 C296.408875,650.353404 296.599047,649.782887 296.979398,649.259905 C297.549924,648.499204 298.310613,648.118859 299.26149,648.118859 L300.687797,648.118859 C301.448498,648.118859 301.828843,647.667199 301.828843,646.763867 L301.828843,634.212361 C301.828843,633.879555 301.638671,633.713154 301.25832,633.713154 L296.765452,633.713154 C296.432645,633.713154 296.242473,633.879555 296.194929,634.212361 C295.624403,642.627617 294.50714,649.640226 292.843106,655.250396 C292.510299,656.248816 291.844696,656.91442 290.846276,657.247227 C290.465925,657.342314 290.085578,657.389857 289.70523,657.389857 C289.08716,657.389857 288.492871,657.223456 287.922345,656.89065 L286.638669,656.177496 C285.592705,655.654514 284.832015,654.846281 284.356577,653.752773 C284.118858,653.134704 284,652.492872 284,651.827258 C284,651.399364 284.071315,650.947704 284.213946,650.472266 C285.069735,647.429462 285.735338,643.828072 286.210777,639.667987 C286.686215,635.507903 286.971473,631.94217 287.066561,628.970681 C287.161649,625.999193 287.209192,622.445346 287.209192,618.309033 L287.209192,595.202853 C287.209192,594.014257 287.613308,593.015852 288.421553,592.207607 C289.229798,591.399362 290.228203,590.995246 291.416799,590.995246 L307.391442,590.995246 Z M327.930269,602.762282 C327.930269,602.429475 327.763869,602.263074 327.431062,602.263074 L325.006339,602.263074 C324.625989,602.263074 324.435816,602.429475 324.435816,602.762282 L324.435816,617.025357 C324.435816,617.405707 324.625989,617.59588 325.006339,617.59588 L327.431062,617.59588 C327.763869,617.59588 327.930269,617.405707 327.930269,617.025357 L327.930269,602.762282 Z M339.554675,617.59588 C339.887482,617.59588 340.053883,617.405707 340.053883,617.025357 L340.053883,602.762282 C340.053883,602.429475 339.887482,602.263074 339.554675,602.263074 L337.201268,602.263074 C336.820917,602.263074 336.630745,602.429475 336.630745,602.762282 L336.630745,617.025357 C336.630745,617.405707 336.820917,617.59588 337.201268,617.59588 L339.554675,617.59588 Z M328.429477,647.263074 L338.841521,647.263074 C340.31538,647.263074 341.337557,646.751986 341.908082,645.729794 C342.478608,644.707607 342.930268,642.627591 343.263074,639.489699 C343.358162,638.538823 343.809822,637.849447 344.618067,637.421553 C345.093505,637.183834 345.545164,637.064976 345.973059,637.064976 C346.400953,637.064976 346.828841,637.160062 347.256735,637.350238 C347.827261,637.635501 348.42155,637.896988 349.03962,638.134707 C350.228215,638.610145 351.155306,639.347063 351.820919,640.345483 C352.343901,641.153728 352.605388,642.009504 352.605388,642.912837 L352.605388,643.554675 C351.844687,648.546776 350.51348,652.088738 348.611727,654.180666 C346.709975,656.272594 343.786074,657.318542 339.839937,657.318542 L327.217116,657.318542 C323.841505,657.318542 321.250405,656.890654 319.44374,656.034865 C317.637075,655.179077 316.32964,653.693354 315.521395,651.577655 C314.71315,649.461955 314.309033,646.383538 314.309033,642.342314 L314.309033,596.415214 C314.309033,595.274162 314.71315,594.287643 315.521395,593.455626 C316.32964,592.623609 317.328045,592.207607 318.51664,592.207607 L346.044374,592.207607 C347.185426,592.207607 348.171945,592.623609 349.003962,593.455626 C349.835979,594.287643 350.251981,595.274162 350.251981,596.415214 L350.251981,626.795563 C350.251981,627.984158 349.835979,628.982563 349.003962,629.790808 C348.171945,630.599053 347.185426,631.00317 346.044374,631.00317 L343.120444,631.00317 C342.264655,631.00317 341.539623,630.706025 340.945325,630.111727 C340.351027,629.51743 340.053883,628.792397 340.053883,627.936609 C340.053883,627.698889 339.935025,627.580032 339.697306,627.580032 L325.006339,627.580032 C324.625989,627.580032 324.435816,627.746433 324.435816,628.079239 L324.435816,642.413629 C324.435816,644.600645 324.64976,645.955623 325.077655,646.478605 C325.505549,647.001587 326.622812,647.263074 328.429477,647.263074 Z M449.190174,638.562599 C449.190174,639.703651 448.786058,640.69017 447.977813,641.522187 C447.169568,642.354204 446.171163,642.770206 444.982567,642.770206 L427.795563,642.770206 C427.748019,642.770206 427.700476,642.805863 427.652932,642.877179 C427.605388,642.948495 427.62916,643.007924 427.724247,643.055468 C431.955647,646.240903 438.326423,648.237714 446.836767,649.045959 C447.692556,649.093503 448.286845,649.521391 448.619651,650.329635 C448.762283,650.662442 448.833597,650.995244 448.833597,651.328051 C448.833597,651.755945 448.690968,652.183833 448.405705,652.611727 C447.787636,653.51506 447.193347,654.465922 446.622821,655.464342 C445.957207,656.55785 445.07766,657.413626 443.984152,658.031696 C443.128363,658.45959 442.272587,658.673534 441.416799,658.673534 C441.131536,658.673534 440.822506,658.649763 440.489699,658.602219 C434.546721,657.651342 429.637896,656.070534 425.763074,653.859746 C421.888253,651.648959 418.619665,648.618086 415.957211,644.767036 C415.909667,644.624405 415.826467,644.564976 415.707607,644.588748 C415.588747,644.61252 415.481775,644.671949 415.386688,644.767036 C413.437391,648.000016 410.465947,650.709973 406.472266,652.896989 C402.478585,655.084005 396.987357,656.866871 389.998415,658.245642 C389.713152,658.293186 389.404122,658.316957 389.071315,658.316957 C388.26307,658.316957 387.478609,658.103013 386.717908,657.675119 C385.671944,657.057049 384.863711,656.201273 384.293185,655.107765 L383.009509,652.825674 C382.724246,652.350235 382.581616,651.874804 382.581616,651.399366 C382.581616,651.066561 382.652931,650.709986 382.795563,650.329635 C383.175913,649.473847 383.817745,648.974644 384.721078,648.832013 C393.041246,647.54833 398.936591,645.646605 402.40729,643.126783 C402.454834,643.031695 402.46672,642.948495 402.442948,642.877179 C402.419176,642.805863 402.359747,642.770206 402.264659,642.770206 L386.290016,642.770206 C385.148964,642.770206 384.162445,642.354204 383.330428,641.522187 C382.498411,640.69017 382.082409,639.703651 382.082409,638.562599 L382.082409,637.77813 C382.082409,636.589534 382.498411,635.591129 383.330428,634.782884 C384.162445,633.974639 385.148964,633.570523 386.290016,633.570523 L407.256735,633.570523 C407.637086,633.570523 407.85103,633.404122 407.898574,633.071315 C407.993661,632.50079 408.112519,631.763871 408.255151,630.860539 C408.302694,630.527732 408.136294,630.361331 407.755943,630.361331 L386.717908,630.361331 C385.576856,630.361331 384.590337,629.945329 383.75832,629.113312 C382.926303,628.281295 382.510301,627.294776 382.510301,626.153724 L382.510301,625.155309 C382.510301,623.966714 382.926303,622.968308 383.75832,622.160063 C384.590337,621.351818 385.576856,620.947702 386.717908,620.947702 L409.324881,620.947702 C409.657688,620.947702 409.824089,620.75753 409.824089,620.377179 L409.824089,619.022187 C409.824089,618.68938 409.657688,618.522979 409.324881,618.522979 L392.922345,618.522979 C391.781294,618.522979 390.794774,618.106977 389.962758,617.27496 C389.130741,616.442944 388.714739,615.456424 388.714739,614.315372 L388.714739,613.88748 C388.714739,612.746429 389.130741,611.759909 389.962758,610.927892 C390.794774,610.095875 391.781294,609.679873 392.922345,609.679873 L409.324881,609.679873 C409.657688,609.679873 409.824089,609.513472 409.824089,609.180666 L409.824089,607.825674 C409.824089,607.445323 409.657688,607.255151 409.324881,607.255151 L389.713154,607.255151 C388.572102,607.255151 387.585583,606.851034 386.753566,606.042789 C385.921549,605.234544 385.505547,604.236139 385.505547,603.047544 L385.505547,602.191759 C385.505547,601.050707 385.921549,600.064188 386.753566,599.232171 C387.585583,598.400154 388.572102,597.984152 389.713154,597.984152 L396.488114,597.984152 C396.630746,597.984152 396.737718,597.936609 396.809033,597.841521 C396.880349,597.746434 396.868463,597.651348 396.773376,597.55626 C396.630744,597.223453 396.488115,596.914423 396.345483,596.62916 C396.012677,596.058634 395.846276,595.464345 395.846276,594.846276 C395.846276,594.465925 395.893819,594.08558 395.988906,593.70523 C396.321713,592.659266 396.987317,591.946119 397.985737,591.565769 L399.62599,590.995246 C400.291604,590.709983 400.980979,590.567353 401.694136,590.567353 C402.217118,590.567353 402.716321,590.638668 403.191759,590.7813 C404.427898,591.114106 405.378761,591.803481 406.044374,592.849445 C406.805075,593.990497 407.446907,595.10776 407.969889,596.201268 C408.112521,596.534075 408.112521,596.866876 407.969889,597.199683 C407.827258,597.53249 407.565771,597.770205 407.18542,597.912837 L407.18542,597.948494 C407.18542,597.972266 407.209192,597.984152 407.256735,597.984152 L423.017433,597.984152 C422.684626,597.889065 422.44691,597.663235 422.304279,597.306656 C422.161647,596.950077 422.185419,596.60539 422.375594,596.272583 C422.94612,595.321707 423.516637,594.29953 424.087163,593.206022 C424.657689,592.112514 425.489693,591.304282 426.583201,590.7813 C427.296359,590.400949 428.033277,590.210777 428.793978,590.210777 C429.174328,590.210777 429.554673,590.25832 429.935024,590.353407 L433.215531,591.137876 C434.213951,591.375595 434.903326,591.969884 435.283677,592.920761 C435.426308,593.253567 435.497623,593.610141 435.497623,593.990491 C435.497623,594.513473 435.30745,595.036447 434.9271,595.559429 C434.546749,596.082411 434.047547,596.748015 433.429477,597.55626 C433.381933,597.651348 433.381933,597.746434 433.429477,597.841521 C433.477021,597.936609 433.548335,597.984152 433.643423,597.984152 L441.202853,597.984152 C442.343904,597.984152 443.330424,598.400154 444.162441,599.232171 C444.994457,600.064188 445.41046,601.050707 445.41046,602.191759 L445.41046,603.047544 C445.41046,604.236139 444.994457,605.234544 444.162441,606.042789 C443.330424,606.851034 442.343904,607.255151 441.202853,607.255151 L421.305864,607.255151 C420.973057,607.255151 420.806656,607.445323 420.806656,607.825674 L420.806656,609.180666 C420.806656,609.513472 420.973057,609.679873 421.305864,609.679873 L438.492868,609.679873 C439.63392,609.679873 440.62044,610.095875 441.452456,610.927892 C442.284473,611.759909 442.700475,612.746429 442.700475,613.88748 L442.700475,614.315372 C442.700475,615.456424 442.284473,616.442944 441.452456,617.27496 C440.62044,618.106977 439.63392,618.522979 438.492868,618.522979 L421.305864,618.522979 C420.973057,618.522979 420.806656,618.68938 420.806656,619.022187 L420.806656,620.377179 C420.806656,620.75753 420.973057,620.947702 421.305864,620.947702 L444.126783,620.947702 C445.267835,620.947702 446.254354,621.351818 447.086371,622.160063 C447.918388,622.968308 448.33439,623.966714 448.33439,625.155309 L448.33439,626.153724 C448.33439,627.294776 447.918388,628.281295 447.086371,629.113312 C446.254354,629.945329 445.267835,630.361331 444.126783,630.361331 L420.093502,630.361331 C419.713152,630.361331 419.499208,630.527732 419.451664,630.860539 C419.356576,631.763871 419.26149,632.477018 419.166403,633 C419.118859,633.380351 419.28526,633.570523 419.66561,633.570523 L444.982567,633.570523 C446.171163,633.570523 447.169568,633.974639 447.977813,634.782884 C448.786058,635.591129 449.190174,636.589534 449.190174,637.77813 L449.190174,638.562599 Z M502.771791,621.304279 C502.486528,621.304279 502.343899,621.446908 502.343899,621.732171 C502.343899,622.017434 502.438985,622.278921 502.62916,622.51664 C504.530913,624.465937 507.050697,627.199665 510.18859,630.717908 C511.044378,631.716328 511.472266,632.904906 511.472266,634.283677 C511.472266,635.424728 511.163236,636.470677 510.545166,637.421553 L509.26149,639.275753 C508.738508,640.03645 508.049133,640.416799 507.193344,640.416799 L507.050713,640.416799 C506.099837,640.369255 505.362919,639.941367 504.839937,639.133122 C504.316955,638.277333 503.580036,637.064984 502.62916,635.496038 C502.581616,635.40095 502.522187,635.365293 502.450872,635.389065 C502.379556,635.412837 502.343899,635.472266 502.343899,635.567353 L502.343899,654.751189 C502.343899,655.939784 501.927896,656.938189 501.09588,657.746434 C500.263863,658.554679 499.277343,658.958796 498.136292,658.958796 L495.8542,658.958796 C494.713148,658.958796 493.726629,658.554679 492.894612,657.746434 C492.062595,656.938189 491.646593,655.939784 491.646593,654.751189 L491.646593,637.278922 C491.646593,637.231379 491.622821,637.207607 491.575277,637.207607 C491.527734,637.207607 491.48019,637.231379 491.432647,637.278922 C489.625981,641.462778 487.676714,645.052283 485.584786,648.047544 C485.156892,648.713157 484.562603,649.045959 483.801902,649.045959 L483.37401,649.045959 C482.470677,648.903327 481.805073,648.404125 481.377179,647.548336 C480.949285,646.740091 480.473854,645.884315 479.950872,644.980983 C479.42789,644.030106 479.166403,643.031701 479.166403,641.985737 L479.166403,641.486529 C479.26149,640.25039 479.689378,639.133127 480.450079,638.134707 C483.873234,633.475413 486.702049,628.031727 488.936609,621.803487 C488.984152,621.660855 488.960381,621.541997 488.865293,621.44691 C488.770206,621.351823 488.675119,621.304279 488.580032,621.304279 L483.445325,621.304279 C482.304273,621.304279 481.317754,620.888277 480.485737,620.05626 C479.65372,619.224243 479.237718,618.237724 479.237718,617.096672 L479.237718,615.74168 C479.237718,614.553084 479.65372,613.554679 480.485737,612.746434 C481.317754,611.938189 482.304273,611.534073 483.445325,611.534073 L491.147385,611.534073 C491.480192,611.534073 491.646593,611.3439 491.646593,610.96355 L491.646593,604.18859 C491.646593,603.808239 491.480192,603.641838 491.147385,603.689382 C489.578439,603.927101 487.961973,604.164817 486.29794,604.402536 C486.107765,604.450079 485.893821,604.473851 485.656101,604.473851 C484.752769,604.473851 483.896993,604.188592 483.088748,603.618067 C482.090328,602.952453 481.400953,602.049134 481.020602,600.908082 C480.973058,600.765451 480.925515,600.646593 480.877971,600.551506 C480.73534,600.123611 480.664025,599.719495 480.664025,599.339144 C480.664025,598.768618 480.806655,598.221873 481.091918,597.698891 C481.6149,596.748014 482.375589,596.201269 483.37401,596.058637 C490.220319,594.917585 496.35338,593.443749 501.773376,591.637084 C502.438989,591.446909 503.080821,591.351823 503.698891,591.351823 C504.269416,591.351823 504.839934,591.423137 505.41046,591.565769 C506.599055,591.898575 507.59746,592.540407 508.405705,593.491284 L509.903328,595.345483 C510.331222,595.868465 510.545166,596.462754 510.545166,597.128368 C510.545166,597.366087 510.497623,597.651345 510.402536,597.984152 C510.117273,598.935029 509.499212,599.553089 508.548336,599.838352 C506.884302,600.31379 504.982578,600.836764 502.843106,601.40729 C502.510299,601.454834 502.343899,601.668778 502.343899,602.049128 L502.343899,610.96355 C502.343899,611.3439 502.510299,611.534073 502.843106,611.534073 L507.621236,611.534073 C508.762288,611.534073 509.748807,611.938189 510.580824,612.746434 C511.412841,613.554679 511.828843,614.553084 511.828843,615.74168 L511.828843,617.096672 C511.828843,618.237724 511.412841,619.224243 510.580824,620.05626 C509.748807,620.888277 508.762288,621.304279 507.621236,621.304279 L502.771791,621.304279 Z M523.809826,638.919176 C523.809826,639.299526 523.976227,639.489699 524.309033,639.489699 L532.438986,639.489699 C532.819336,639.489699 533.009509,639.299526 533.009509,638.919176 L533.009509,607.255151 C533.009509,606.8748 532.819336,606.684628 532.438986,606.684628 L524.309033,606.684628 C523.976227,606.684628 523.809826,606.8748 523.809826,607.255151 L523.809826,638.919176 Z M513.397781,600.765452 C513.397781,599.576856 513.813783,598.578451 514.6458,597.770206 C515.477817,596.961961 516.464337,596.557845 517.605388,596.557845 L539.713154,596.557845 C540.901749,596.557845 541.900154,596.961961 542.708399,597.770206 C543.516644,598.578451 543.920761,599.576856 543.920761,600.765452 L543.920761,650.614897 C543.920761,651.755949 543.516644,652.742468 542.708399,653.574485 C541.900154,654.406502 540.901749,654.822504 539.713154,654.822504 L537.217116,654.822504 C536.02852,654.822504 535.030115,654.406502 534.22187,653.574485 C533.413625,652.742468 533.009509,651.755949 533.009509,650.614897 L533.009509,650.187005 C533.009509,649.806654 532.819336,649.616482 532.438986,649.616482 L524.309033,649.616482 C523.976227,649.616482 523.809826,649.806654 523.809826,650.187005 L523.809826,651.114105 C523.809826,652.255156 523.393823,653.241676 522.561807,654.073693 C521.72979,654.905709 520.74327,655.321712 519.602219,655.321712 L517.605388,655.321712 C516.464337,655.321712 515.477817,654.905709 514.6458,654.073693 C513.813783,653.241676 513.397781,652.255156 513.397781,651.114105 L513.397781,600.765452 Z M639.792393,623.301109 C640.933445,623.301109 641.919964,623.717112 642.751981,624.549128 C643.583998,625.381145 644,626.367665 644,627.508716 L644,629.648177 C644,630.789229 643.583998,631.775749 642.751981,632.607765 C641.919964,633.439782 640.933445,633.855784 639.792393,633.855784 L617.470681,633.855784 C617.090331,633.855784 616.900158,634.045957 616.900158,634.426307 L616.900158,653.18225 C616.900158,654.323302 616.484156,655.309822 615.652139,656.141838 C614.820123,656.973855 613.833603,657.389857 612.692552,657.389857 L609.768621,657.389857 C608.62757,657.389857 607.64105,656.973855 606.809033,656.141838 C605.977016,655.309822 605.561014,654.323302 605.561014,653.18225 L605.561014,634.426307 C605.561014,634.045957 605.394613,633.855784 605.061807,633.855784 L580.81458,633.855784 C579.673528,633.855784 578.687009,633.439782 577.854992,632.607765 C577.022975,631.775749 576.606973,630.789229 576.606973,629.648177 L576.606973,627.508716 C576.606973,626.367665 577.022975,625.381145 577.854992,624.549128 C578.687009,623.717112 579.673528,623.301109 580.81458,623.301109 L605.061807,623.301109 C605.394613,623.301109 605.561014,623.110937 605.561014,622.730586 L605.561014,610.749604 C605.561014,610.416797 605.394613,610.250396 605.061807,610.250396 L591.939778,610.250396 C591.606973,610.250396 591.369256,610.416797 591.226624,610.749604 C589.990485,613.221882 588.730593,615.432637 587.44691,617.381933 C586.82884,618.33281 585.925521,618.927099 584.736926,619.164818 C584.404119,619.212362 584.095089,619.236133 583.809826,619.236133 C582.954037,619.236133 582.169576,619.022189 581.456418,618.594295 C580.553086,618.1664 579.578452,617.690969 578.532488,617.167987 C577.629156,616.787637 577.058638,616.07449 576.820919,615.028526 C576.773375,614.790807 576.749604,614.553092 576.749604,614.315372 C576.749604,613.602215 576.963548,612.936612 577.391442,612.318542 C579.10302,610.083982 580.648171,607.421569 582.026941,604.33122 C583.548344,600.860521 584.832007,597.223474 585.877971,593.419968 C586.210778,592.278917 586.85261,591.399369 587.803487,590.7813 C588.564188,590.305861 589.348649,590.068146 590.156894,590.068146 C590.442157,590.068146 590.727415,590.091917 591.012678,590.139461 L593.865293,590.709984 C595.006345,590.900159 595.885892,591.494448 596.503962,592.492868 C596.884313,593.110938 597.074485,593.776542 597.074485,594.489699 C597.074485,594.822506 597.026942,595.179079 596.931854,595.559429 C596.599047,596.652937 596.218703,597.889058 595.790808,599.267829 C595.743264,599.41046 595.767036,599.529318 595.862124,599.624406 C595.957211,599.719493 596.052297,599.767036 596.147385,599.767036 L604.990491,599.767036 C605.370842,599.767036 605.561014,599.600636 605.561014,599.267829 L605.561014,592.207607 C605.561014,591.066555 605.977016,590.080036 606.809033,589.248019 C607.64105,588.416002 608.62757,588 609.768621,588 L612.692552,588 C613.833603,588 614.820123,588.416002 615.652139,589.248019 C616.484156,590.080036 616.900158,591.066555 616.900158,592.207607 L616.900158,599.196513 C616.900158,599.576864 617.066559,599.767036 617.399366,599.767036 L635.513471,599.767036 C636.654522,599.767036 637.641042,600.183039 638.473059,601.015055 C639.305075,601.847072 639.721078,602.833592 639.721078,603.974643 L639.721078,606.042789 C639.721078,607.183841 639.305075,608.17036 638.473059,609.002377 C637.641042,609.834394 636.654522,610.250396 635.513471,610.250396 L617.470681,610.250396 C617.090331,610.250396 616.900158,610.416797 616.900158,610.749604 L616.900158,622.730586 C616.900158,623.110937 617.090331,623.301109 617.470681,623.301109 L639.792393,623.301109 Z" id="肥美和牛"></path>
        </g>
    </g>
</svg>