<?xml version="1.0" encoding="UTF-8"?>
<svg width="329px" height="152px" viewBox="0 0 329 152" version="1.1" xmlns="http://www.w3.org/2000/svg" xmlns:xlink="http://www.w3.org/1999/xlink">
    <!-- Generator: Sketch 56.3 (81716) - https://sketch.com -->
    <title>一盤肉</title>
    <desc>Created with Sketch.</desc>
    <defs>
        <polygon id="path-1" points="0 0.965272591 205.843074 0.965272591 205.843074 106.259787 0 106.259787"></polygon>
    </defs>
    <g id="Website" stroke="none" stroke-width="1" fill="none" fill-rule="evenodd">
        <g id="Desktop-HD-Copy" transform="translate(-299.000000, -415.000000)">
            <g id="一盤肉" transform="translate(300.000000, 414.500000)">
                <g id="-盤子" transform="translate(0.000875, 38.092308)" fill="#FFFFFF" stroke="#DEB5B5">
                    <ellipse id="Oval" fill-opacity="0.9" cx="163.300699" cy="72.7692308" rx="108.803344" ry="40.2769231"></ellipse>
                    <ellipse id="Oval" fill-opacity="0.8" cx="163.300699" cy="46.0307692" rx="163.300699" ry="46.0307692"></ellipse>
                </g>
                <g id="肉" transform="translate(60.600000, 0.184615)">
                    <g id="Group-9" transform="translate(1.000000, 2.724615)">
                        <path d="M187.046778,82.4573515 C186.395985,82.4702683 185.733612,82.5757555 185.087451,82.7845771 C186.358929,82.0332499 187.593351,81.1613659 188.804614,80.2098283 C188.218669,80.9590027 187.632723,81.7081771 187.046778,82.4573515 M172.863657,87.8328931 C172.511627,87.6240715 172.129489,87.4475419 171.684819,87.3442075 C173.16242,87.1461499 174.619178,86.8684387 176.048143,86.5067683 C174.98742,86.9480923 173.924381,87.3894163 172.863657,87.8328931 M130.83771,80.1301747 C130.423147,80.0289931 130.027113,79.9837843 129.644975,79.9708675 C129.292945,79.7663515 128.910806,79.5855163 128.468452,79.4520427 C126.775464,78.9418291 125.073211,78.4854355 123.364011,78.0613339 C124.332095,78.1861963 125.300178,78.3261283 126.268262,78.4660603 C128.998814,79.2561379 131.560298,80.0978827 134.015247,80.9374747 C132.959156,80.6619163 131.898433,80.3906635 130.83771,80.1301747 M55.1534845,80.2076755 C54.4887955,80.3174683 53.8982182,80.5951795 53.3979644,80.9783779 C52.0593224,81.2603947 50.7183644,81.5445643 49.3797224,81.8265811 C48.6918735,81.9708187 48.129088,82.2226963 47.6519941,82.5305467 C47.5315627,82.3604755 47.3949193,82.2054739 47.2142721,82.0913755 C47.9924446,81.9019291 48.7405092,81.7361635 49.5441576,81.5294947 C54.5304833,80.2571899 59.1740425,79.2130819 63.5883188,78.3218227 C63.759702,78.4660603 63.9403492,78.5952283 64.1372083,78.7114795 C61.1426337,79.2109291 58.1480591,79.7103787 55.1534845,80.2076755 M199.678185,84.9373771 C199.793985,84.6876523 199.928312,84.4788307 200.085799,84.2527867 C200.215495,84.0719515 200.363718,83.9126443 200.525838,83.7619483 C200.542049,83.7210451 200.565209,83.6801419 200.581421,83.6392387 C200.681009,83.1419419 200.926504,82.6683259 201.297062,82.2635995 C201.331802,82.1925571 201.35033,82.1172091 201.394334,82.0504723 C201.477709,81.9234571 201.558769,81.7942891 201.639829,81.6694267 C201.674568,81.6156067 201.720888,81.5725507 201.76026,81.5208835 C201.785736,81.4347715 201.788052,81.3465067 201.820476,81.2647003 C201.785736,81.3228259 201.74868,81.3809515 201.711624,81.4390771 C201.72552,81.4046323 201.739416,81.3701875 201.753312,81.3357427 C201.915431,80.9180995 202.153978,80.5607347 202.443477,80.2593427 C202.452741,80.2507315 202.462005,80.2421203 202.468953,80.2313563 C202.466637,80.2356619 202.464321,80.2399675 202.462005,80.2442731 C202.482849,80.2227451 202.506009,80.2098283 202.526853,80.1904531 C202.61486,79.4714179 202.948363,78.7868275 203.564416,78.3368923 C203.508832,78.1969603 203.460196,78.0527227 203.383769,77.9214019 C203.897918,74.3800459 203.423141,70.5157699 203.383769,66.9421219 C203.613052,66.0121123 203.858547,65.0842555 204.141097,64.1585515 C204.344904,63.4911835 203.770539,63.0606235 203.193858,63.0412483 C202.716764,62.9185387 202.13545,63.0713875 201.931643,63.6289627 C201.046935,66.0400987 199.995476,68.3672755 198.786529,70.6212571 C198.415971,70.5372979 198.006041,70.6320211 197.751282,71.0216779 C197.332088,71.6696707 196.912894,72.3198163 196.4937,72.9678091 C195.88691,73.4349667 195.409816,74.0635843 195.14811,74.8019947 C195.069366,75.0237331 194.96283,75.2433187 194.870191,75.4650571 C194.733547,75.6609619 194.594588,75.8525611 194.460261,76.0484659 C193.987799,76.0678411 193.519969,76.1324251 193.077615,76.2766627 C195.882278,73.2735067 198.492399,69.6008299 200.85934,65.1057835 C215.468603,37.3669555 169.18355,10.6098043 159.044147,7.26435312 C148.902429,3.92105472 127.273402,-5.84835168 87.1627772,7.64324592 C59.6835602,18.2845363 15.1146558,51.1642507 7.02027208,56.5979179 C2.42998064,59.6785747 -2.57487295,70.5523675 2.32576111,78.0764035 C1.76529162,77.9192491 1.01722697,78.1948075 0.973223163,78.9073843 C0.669828522,83.6801419 -0.603965774,89.6520091 1.01722697,94.2116395 C1.15850233,94.8682435 1.41789317,95.4301243 1.78150354,95.8929763 C2.19143371,96.5904835 2.69168747,97.2427819 3.31237269,97.8304963 C6.91373656,108.671997 39.7220456,101.77012 46.3920958,100.351425 C47.6959979,100.073714 48.4973303,99.3826651 48.8979965,98.5409203 C58.1874309,97.0318075 67.4351775,95.3117203 76.6319723,93.3246859 C77.3568771,93.1675315 77.9127146,92.8704451 78.3458047,92.5001635 C85.7523395,92.0545339 93.1218185,91.2730675 100.47277,90.0739579 C100.475086,90.0739579 100.477402,90.0739579 100.479718,90.0718051 C111.874387,92.2116883 123.04672,95.0361619 134.029143,98.6033515 C135.001859,98.9198131 135.851827,98.8681459 136.565152,98.5904347 C143.237518,101.453659 149.926096,104.112367 157.580442,104.56876 C157.816673,104.58383 158.029744,104.566608 158.242815,104.549385 C158.594845,104.672095 158.935296,104.81418 159.291958,104.932584 C159.945067,105.150016 160.542593,105.195225 161.08685,105.12203 C161.709851,105.709744 162.594559,106.07572 163.810454,105.961622 C171.520383,105.240434 178.662895,102.893882 184.913751,98.5796707 C185.483485,98.1878611 185.877203,97.7163979 186.15049,97.2126427 C189.184436,95.7939475 192.067843,93.9769843 194.775235,91.5873763 C195.567304,90.8898691 195.907754,90.0502771 195.917018,89.2171435 C197.22092,87.9039355 198.455343,86.5110739 199.636497,85.0493227 C199.650393,85.0127251 199.659657,84.9739747 199.678185,84.9373771" id="Fill-1" fill="#FED6CC"></path>
                        <path d="M21.4477295,54.4687987 C31.0150826,48.0835939 54.2861464,29.1561763 70.231735,28.4737387 C86.1796396,27.7869955 93.4147912,26.6481643 102.921929,34.4025499 C112.431382,42.1547827 114.624624,54.2061571 99.9180901,62.5267291 C82.9905219,72.1045363 71.4291016,67.7817139 51.6667621,72.6384307 C35.3807231,76.6404859 13.7748558,79.8589219 10.377299,73.0560739 C8.04046551,68.3801923 9.80524961,61.8808891 21.4477295,54.4687987" id="Fill-3" fill="#BC2936"></path>
                        <path d="M107.769295,65.871965 C118.318628,62.6793626 120.525766,48.3137282 116.356984,40.102949 C112.185887,31.8943226 119.300607,15.9313106 136.228175,15.700961 C153.155744,15.474917 177.279092,22.3918634 189.954503,42.3827642 C202.629914,62.3758178 180.255138,75.8738738 172.811548,77.0083994 C154.626397,79.7833586 135.491691,69.2927642 107.769295,65.871965" id="Fill-5" fill="#BC2936"></path>
                        <path d="M141.298108,9.62166912 C121.507977,-0.26183568 88.1415144,12.1921123 72.2769854,22.2392299 C72.2769854,22.2392299 101.9865,20.5665043 108.422636,27.9807475 C110.50471,18.2866891 123.96061,9.77236512 141.298108,9.62166912" id="Fill-7" fill="#BC2936"></path>
                    </g>
                    <g id="Group-18" transform="translate(1.000000, 10.898462)" fill="#F8B3A0">
                        <path d="M201.948087,54.402341 C201.948087,54.402341 201.487205,55.0921275 200.850308,56.080317 L202.825847,52.4475855 L201.948087,54.402341 Z M203.685079,40.5698508 L201.118962,34.4612397 L197.774673,28.5191289 L190.199071,19.4610858 L184.983463,14.6801516 C196.579623,30.140884 204.602211,44.0750042 197.973849,60.8504395 C197.441171,61.8407913 197.075245,62.6538312 197.093772,62.9911562 C197.209572,64.8053597 195.727339,72.1508293 188.869693,80.7418069 C182.009732,89.3284598 164.68613,94.4726671 153.277565,91.6486509 C140.900916,88.5846148 112.307708,77.6756085 98.0782679,78.2486287 C84.3838212,78.8000254 30.629702,94.0985823 17.7296397,92.5589961 C17.4007692,92.4984505 17.0533708,92.4487167 16.7314482,92.3816842 C16.7106043,92.3773595 16.6828124,92.3730348 16.6619685,92.3687101 C8.2665061,90.6474873 3.19448882,87.4623602 1.28379737,84.6621297 L0.287921832,83.1744396 L1.20273774,86.9974571 L3.72021846,90.4117923 L8.44946928,93.6401662 L14.2973431,96.0252274 L21.2823678,96.0252274 L24.4043218,95.4673436 L31.519042,94.954869 L80.7824574,84.3183176 L97.7100255,82.1430034 L107.768369,83.1982254 L149.229215,94.9700054 L160.883275,96.944222 L172.345107,95.9517078 L183.691141,91.6335145 L190.412142,86.9433986 L198.506526,78.5664927 L199.481558,77.1934066 C199.53251,77.0160948 199.597357,76.8409452 199.678417,76.6701203 C199.794216,76.4192889 199.926228,76.2095419 200.086031,75.9803338 C200.23657,75.7684245 200.419534,75.5846255 200.614077,75.415963 C200.706716,74.8991637 200.917471,74.3975008 201.29961,73.9801691 C201.334349,73.9088119 201.352877,73.8352923 201.394565,73.7682598 C201.477941,73.6406817 201.559,73.5131036 201.64006,73.3855256 C201.672484,73.3379541 201.711856,73.299032 201.746596,73.2536228 C201.772072,73.1628045 201.785967,73.0698239 201.820707,72.9790056 C201.785967,73.0373888 201.748912,73.0979343 201.711856,73.1563175 C201.725752,73.1195577 201.739648,73.0871226 201.753544,73.0503628 C201.915663,72.6330312 202.15421,72.2740827 202.443709,71.9713551 C202.452972,71.9605434 202.462236,71.951894 202.469184,71.9410823 C202.466868,71.945407 202.464552,71.9497317 202.462236,71.9540564 C202.480764,71.932433 202.508556,71.9216213 202.527084,71.9021602 C202.62204,71.1366918 202.99723,70.4101455 203.685079,69.962541 L203.685079,50.531752 L202.825847,52.4475855 L203.685079,47.8980217 L203.685079,40.5698508 Z" id="Fill-10"></path>
                        <path d="M81.7913024,1.22650338 C81.7218227,1.25677615 81.6245512,1.31515933 81.5295956,1.37138018 C81.9279458,1.18109424 82.0692212,1.10973701 81.7913024,1.22650338" id="Fill-12"></path>
                        <path d="M81.5289008,1.37202888 C79.708533,2.23264028 72.2765222,5.63183906 72.2765222,5.63183906 L58.702507,13.0832634 L45.2975591,21.4882797 C59.5200514,17.5095738 64.9186232,13.8465695 68.6797904,11.5544889 C72.2695743,9.36836292 79.5325178,2.55482897 81.5289008,1.37202888" id="Fill-14"></path>
                        <path d="M18.9587354,81.6469625 C28.9174908,81.9518525 52.1561308,77.0973987 57.3532115,76.228138 C63.2775129,75.2356238 71.7262431,73.7630702 78.5120927,73.1511279 C84.3391226,72.6278416 97.3573003,71.4580155 105.970466,72.1391527 C113.006442,72.6905494 123.143529,74.245272 132.300952,77.0649636 C141.460691,79.8846553 160.166939,82.0751059 168.284483,80.1203503 L161.741812,79.4867847 L145.738324,76.5287033 L121.186518,70.0135723 L107.76999,68.3074859 L94.1936585,68.0155699 L78.002575,69.1680972 L62.7911551,70.8028264 L48.2351603,73.7392844 L30.7332267,75.6032217 L11.2719658,74.9285715 L5.31060854,71.9986006 C-1.43586925,60.3046648 7.69839385,51.350414 13.4397321,45.4926345 C17.9188561,40.9236096 34.6426172,31.156319 39.5826231,25.7396568 L28.1763741,33.4181268 L9.48402185,46.0656546 L5.74138261,49.2745675 L2.23960629,54.3625539 L0.335862818,61.3728608 L0.335862818,68.7053564 L0.335862818,73.7392844 C2.60321666,78.745102 8.99998002,81.3399102 18.9587354,81.6469625" id="Fill-16"></path>
                    </g>
                    <g id="Group-28">
                        <path d="M23.1026913,56.0085834 L23.1235352,55.9958322 C24.7910478,54.899229 26.8684905,53.4264654 29.2516438,51.7411818 C40.1807989,44.0097042 58.467853,31.075737 71.2868556,30.5316858 L75.3143615,30.3489186 C78.7026543,30.1895286 81.6485932,30.0492654 84.3027173,30.0492654 C91.8366315,30.0492654 97.0105524,31.1692458 103.159505,36.123087 C108.138883,40.129089 110.739739,45.1148082 110.295069,49.798749 C109.852715,54.5018166 106.399574,58.7819694 100.317786,62.1801642 C90.1853309,67.8374466 82.0608393,68.4643806 72.6532894,69.191199 C66.497389,69.6672438 60.1330495,70.158165 52.3698523,72.0432174 C30.4883823,77.351967 14.8068165,77.745129 12.4282951,73.0335606 C9.87375858,67.9883358 13.6650336,61.9400166 23.1026913,56.0085834 M23.7372725,78.4336938 C33.5454886,78.4336938 46.0888884,75.7644426 52.9627456,74.0982858 C60.5290837,72.2599878 66.7915197,71.7775674 72.8478326,71.3100234 C82.5471971,70.561953 90.9241316,69.913767 101.519784,63.995085 C110.035678,59.2410126 112.247448,53.751621 112.604111,49.9836414 C113.111312,44.6196366 110.225589,38.9836062 104.685742,34.5249366 C95.6649624,27.261003 88.392755,27.611661 75.1962461,28.2258438 L71.18032,28.4107362 C57.6317807,28.982415 39.701389,41.6656086 27.8388901,50.0580234 C25.4835287,51.722055 23.4292459,53.177817 21.7825773,54.2637942 C7.65272453,63.1471302 8.53974856,70.3983126 10.3253766,73.930395 C12.022997,77.2797102 17.2872414,78.4336938 23.7372725,78.4336938" id="Fill-19" fill="#3E3A39"></path>
                        <path d="M189.957933,43.7408664 C194.156822,50.2801068 194.745083,56.6195784 191.704189,62.5786392 C187.644259,70.535388 177.926366,75.6868728 173.623258,76.3350588 C163.289312,77.8949556 152.448164,75.0641892 139.890869,71.789256 C131.812697,69.6831828 122.773389,67.3284612 112.629355,65.8344456 C115.123676,64.2958008 117.124691,61.9984596 118.509652,59.0508072 C121.205464,53.3191428 121.163777,45.861816 118.403117,40.4978112 C116.460002,36.7192056 117.25207,31.091676 120.380972,26.490618 C122.513999,23.345322 127.546644,18.053574 137.243693,17.926062 C153.83081,17.6221584 177.493276,24.33354 189.957933,43.7408664 M118.414697,25.3663872 C114.831861,30.634758 114.007369,36.9317256 116.309462,41.4052716 C118.762095,46.1763456 118.794519,53.0832456 116.383574,58.209228 C115.188523,60.7509672 112.835478,64.0577784 108.411938,65.3796528 C107.895472,65.5326672 107.566601,65.9938356 107.615237,66.486882 C107.666189,66.9820536 108.080751,67.3773408 108.615745,67.443222 C120.114633,68.8437288 130.284144,71.4959784 139.256288,73.8336984 C149.536966,76.5157008 158.692073,78.9023004 167.509045,78.9023004 C169.688391,78.9023004 171.84921,78.7556616 173.998448,78.430506 C178.454412,77.761068 189.186708,72.5309508 193.802475,63.479724 C197.139816,56.9404836 196.500603,49.740306 191.952,42.6612648 C178.984774,22.4718648 154.34496,15.545838 137.211269,15.800862 C129.323008,15.9049968 122.472311,19.39245 118.414697,25.3663872" id="Fill-21" fill="#3E3A39"></path>
                        <path d="M137.347217,10.06771 C123.414224,11.4745924 111.919967,18.217852 108.800329,26.9800516 C102.804232,22.7827816 88.8967143,22.0878412 80.3368166,22.0878412 C79.2876733,22.0878412 78.3149577,22.0984672 77.4487776,22.1133436 C93.6838649,13.0153624 119.798964,4.71433116 137.347217,10.06771 M73.3471599,24.3766816 C81.4508076,23.9282644 103.554613,24.0005212 108.52241,29.651428 C108.744745,29.906452 109.078248,30.0467152 109.42333,30.0467152 C109.513654,30.0467152 109.606294,30.0360892 109.698933,30.0169624 C110.134339,29.9192032 110.470158,29.5961728 110.558165,29.1923848 C112.876471,18.5323816 128.520981,12.0420208 142.310383,11.9230096 C142.838429,11.9187592 143.294679,11.587228 143.422058,11.1154336 C143.549438,10.6436392 143.310891,10.1548432 142.847693,9.92532156 C131.436812,4.29991716 116.524155,6.14246556 106.021142,8.68420476 C94.3902417,11.4958444 81.9070576,16.6367032 72.6245712,22.4384992 C72.1961131,22.7083996 72.0131499,23.2099468 72.1822171,23.6604892 C72.3512844,24.1131568 72.8144823,24.4255612 73.3471599,24.3766816" id="Fill-23" fill="#3E3A39"></path>
                        <g id="Group-27">
                            <mask id="mask-2" fill="white">
                                <use xlink:href="#path-1"></use>
                            </mask>
                            <g id="Clip-26"></g>
                            <path d="M160.384829,104.051705 C156.095617,103.722299 147.71405,101.159307 138.839178,98.4433019 C126.555169,94.6859483 112.629123,90.4270475 103.06177,89.8659947 C90.3608829,89.1306755 67.4140577,94.3331651 48.9834122,98.5198091 C39.4924867,100.674762 31.2985154,102.536437 27.1992138,102.929599 C4.8892857,105.056924 2.52002831,93.2896919 2.44591665,92.9539103 L2.44591665,79.0104731 C7.09410783,84.5211167 19.5309721,88.6440047 50.7713562,82.8889631 C102.59394,73.3446899 121.886134,78.9955967 138.910974,83.9791907 C142.461386,85.0184135 145.814939,86.0023811 149.374615,86.8248335 C154.826454,88.0808267 160.697488,89.0775455 166.619473,89.0775455 C179.825246,89.0775455 193.283462,84.1258295 202.899451,66.1041335 C203.114838,65.6982203 203.276957,65.2901819 203.469184,64.8821435 L203.395073,76.5112379 C193.704972,100.158338 171.066174,104.884783 160.384829,104.051705 L160.384829,104.051705 Z M23.0373804,47.0240879 C29.1330651,43.4410007 34.8396636,39.7240259 40.8820805,35.7924059 C54.8799218,26.6774231 69.354857,17.2542863 88.5822029,9.89684388 C125.244319,-2.26780092 145.990954,4.85586948 157.140128,8.68547988 C158.047996,8.99575908 158.884068,9.28266108 159.657609,9.53555988 C165.845933,11.5523747 192.977751,25.9761071 201.204147,44.4802235 C204.416424,51.7080287 204.286729,58.6701839 200.817376,65.1690455 C187.699611,89.7618599 167.73578,88.8756515 149.939716,84.7612643 C146.451836,83.9558135 143.130707,82.9845971 139.612718,81.9538751 C129.153709,78.8914619 117.849364,75.5825255 98.9462565,75.5825255 C86.6043478,75.5825255 71.0200536,76.9936583 50.3151063,80.8062671 C14.0443927,87.4857707 5.07919685,80.4237311 2.96469832,75.6207791 C-0.330954918,68.1400751 8.48833359,55.5758927 23.0373804,47.0240879 L23.0373804,47.0240879 Z M205.838442,55.1381015 C205.907921,51.4041251 205.078797,47.5723895 203.346437,43.6768979 C194.70548,24.2376935 167.078039,9.69707508 160.431149,7.53149628 C159.669189,7.28497308 158.844696,7.00232148 157.95304,6.69416748 C146.523631,2.77104828 125.251267,-4.53963972 87.7692905,7.90978188 L87.7160228,7.92678348 C68.23855,15.3734843 53.6501313,24.8731283 39.5411225,34.0582427 C33.5218655,37.9771115 27.8361109,41.6770847 21.789062,45.2346695 C7.43919029,53.6695883 -1.28977462,65.5664579 0.155402904,74.0736335 L0.129927018,74.0736335 L0.143822956,93.1154255 C0.166982852,93.2599391 2.82805494,107.392519 27.4377607,105.042048 C31.6968657,104.634009 39.9649486,102.757458 49.5392497,100.583378 C67.8170399,96.4328627 90.569322,91.2665015 102.913547,91.9869443 C112.184453,92.5288703 125.955328,96.7431419 138.107325,100.460117 C147.507927,103.335512 155.625471,105.817746 160.192602,106.168404 C160.966143,106.227909 161.799899,106.259787 162.684607,106.259787 C174.706909,106.259787 196.196977,100.355982 205.639267,77.0786663 L205.843074,55.1381015 L205.838442,55.1381015 Z" id="Fill-25" fill="#3E3A39" mask="url(#mask-2)"></path>
                        </g>
                        <ellipse id="Oval" fill="#D2515D" cx="171.769231" cy="50.9384615" rx="3.55384615" ry="2.36923077"></ellipse>
                        <ellipse id="Oval" fill="#D2515D" cx="105.430769" cy="20.1384615" rx="3.55384615" ry="2.36923077"></ellipse>
                        <ellipse id="Oval" fill="#D2515D" cx="156.369231" cy="29.6153846" rx="4.73846154" ry="2.36923077"></ellipse>
                        <ellipse id="Oval" fill="#F18892" cx="136.230769" cy="39.0923077" rx="3.55384615" ry="2.36923077"></ellipse>
                        <ellipse id="Oval" fill="#F18892" cx="79.3692308" cy="39.0923077" rx="3.55384615" ry="2.36923077"></ellipse>
                        <ellipse id="Oval" fill="#F18892" cx="52.1230769" cy="48.5692308" rx="4.73846154" ry="2.36923077"></ellipse>
                        <ellipse id="Oval" fill="#D2515D" cx="75.8153846" cy="53.3076923" rx="4.73846154" ry="2.36923077"></ellipse>
                    </g>
                </g>
            </g>
        </g>
    </g>
</svg>