<?xml version="1.0" encoding="UTF-8"?>
<svg width="388px" height="73px" viewBox="0 0 388 73" version="1.1" xmlns="http://www.w3.org/2000/svg" xmlns:xlink="http://www.w3.org/1999/xlink">
    <!-- Generator: Sketch 57 (83077) - https://sketch.com -->
    <title>牛肉大賞</title>
    <desc>Created with Sketch.</desc>
    <g id="Website" stroke="none" stroke-width="1" fill="none" fill-rule="evenodd">
        <g id="Dribble" transform="translate(-207.000000, -437.000000)" fill="#F2D850" fill-rule="nonzero">
            <path d="M238.96,481.936 L209.776,481.936 C208.332,481.936 207.42,480.72 207.42,479.048 C207.42,477.376 208.332,476.236 209.776,476.236 L238.96,476.236 L238.96,459.136 L222.24,459.136 C220.036,463.088 217.528,466.736 214.792,469.928 C214.184,470.612 213.424,470.992 212.664,470.992 C211.904,470.992 211.144,470.688 210.46,470.156 C209.776,469.624 209.396,468.864 209.396,468.028 C209.396,467.344 209.7,466.584 210.156,465.976 C215.628,459.82 219.96,451.916 222.316,443.936 C222.772,442.72 223.684,442.112 224.824,442.112 C225.28,442.112 225.736,442.188 226.192,442.34 C227.636,442.796 228.244,443.632 228.244,444.772 C228.244,445.152 228.168,445.532 228.016,445.912 C227.18,448.496 226.192,451.004 225.052,453.436 L238.96,453.436 L238.96,440.288 C238.96,438.92 240.328,438.008 242.076,438.008 C243.748,438.008 245.04,438.92 245.04,440.288 L245.04,453.436 L269.36,453.436 C270.728,453.436 271.64,454.652 271.64,456.324 C271.64,457.92 270.728,459.136 269.36,459.136 L245.04,459.136 L245.04,476.236 L273.996,476.236 C275.44,476.236 276.352,477.376 276.352,479.048 C276.352,480.72 275.44,481.936 273.996,481.936 L245.04,481.936 L245.04,505.952 C245.04,507.396 243.748,508.308 242.076,508.308 C240.328,508.308 238.96,507.396 238.96,505.952 L238.96,481.936 Z M346.936,481.024 C343.364,487.636 337.816,492.728 330.292,496.3 C329.76,496.452 329.304,496.604 328.848,496.604 C327.86,496.604 326.948,496.072 326.416,495.008 C326.112,494.476 326.036,493.944 326.036,493.488 C326.036,492.424 326.568,491.512 327.556,491.132 C337.056,487.028 343.212,479.96 345.264,469.624 C345.568,468.408 346.48,467.724 347.848,467.724 C348.076,467.724 348.228,467.724 348.456,467.8 C349.976,467.952 350.888,468.788 350.888,470.156 C350.888,470.308 350.888,470.536 350.812,470.764 C350.432,472.588 349.9,474.336 349.216,475.932 C353.7,482.012 360.312,487.028 367.532,489.916 C368.368,490.296 368.9,491.132 368.9,492.12 C368.9,492.576 368.748,493.108 368.52,493.64 C367.912,494.78 366.924,495.312 365.936,495.312 C365.48,495.312 365.024,495.236 364.644,495.008 C357.728,491.892 351.268,486.8 346.936,481.024 Z M370.952,453.436 L349.368,453.436 C354.08,461.036 361.452,466.204 368.976,469.396 C369.888,469.852 370.42,470.764 370.42,471.828 C370.42,472.284 370.268,472.816 370.04,473.348 C369.508,474.488 368.672,474.944 367.684,474.944 C367.152,474.944 366.62,474.792 366.164,474.564 C358.488,470.916 351.344,465.292 347.012,458.68 C343.516,465.292 337.892,470.384 330.064,474.564 C329.532,474.868 329,475.02 328.468,475.02 C327.48,475.02 326.644,474.564 326.112,473.5 C325.884,472.968 325.732,472.436 325.732,471.904 C325.732,470.84 326.188,469.928 327.024,469.548 C335.384,465.52 340.552,460.808 343.212,453.436 L325.124,453.436 C323.3,453.436 322.464,453.968 322.464,455.64 L322.464,506.028 C322.464,507.396 321.172,508.156 319.5,508.156 C317.752,508.156 316.46,507.396 316.46,506.028 L316.46,454.5 C316.46,449.864 318.816,447.964 323.604,447.964 L344.732,447.964 C345.112,445.532 345.416,442.872 345.492,439.908 C345.568,438.388 346.708,437.628 348.456,437.628 C350.128,437.628 351.496,438.464 351.496,439.908 L351.496,440.06 C351.344,442.872 351.04,445.532 350.584,447.964 L372.396,447.964 C377.184,447.964 379.54,449.864 379.54,454.5 L379.54,499.796 C379.54,504.584 376.728,506.864 371.028,506.864 C367.836,506.864 364.036,506.712 361.376,506.18 C359.932,505.952 359.02,505.04 359.02,503.596 C359.02,503.292 359.02,503.064 359.096,502.76 C359.4,501.24 360.464,500.556 361.68,500.556 C361.832,500.556 362.06,500.556 362.212,500.632 C364.568,501.088 367.608,501.316 370.116,501.316 C373.156,501.316 373.688,500.632 373.688,498.428 L373.688,455.64 C373.688,453.968 372.776,453.436 370.952,453.436 Z M485.92,461.872 L456.432,461.872 C458.712,471.22 463.044,479.048 468.288,485.28 C473.912,491.968 480.828,497.06 487.44,500.1 C488.656,500.632 489.188,501.62 489.188,502.684 C489.188,503.368 488.96,504.128 488.58,504.736 C487.972,505.8 486.908,506.332 485.844,506.332 C485.236,506.332 484.552,506.18 483.944,505.876 C476.648,502.304 469.124,496.148 463.728,489.232 C459.396,483.684 455.9,477.148 453.696,469.776 C452.48,474.868 450.732,479.428 448.3,483.836 C442.904,493.716 434.088,501.62 423.828,506.256 C423.296,506.484 422.764,506.636 422.308,506.636 C421.244,506.636 420.18,506.104 419.496,504.736 C419.192,504.204 419.04,503.596 419.04,503.064 C419.04,502 419.648,501.088 420.712,500.556 C431.276,495.768 438.42,489.612 443.284,480.568 C446.4,474.868 448.148,469.168 449.136,461.872 L422.232,461.872 C420.712,461.872 419.876,460.504 419.876,458.832 C419.876,457.236 420.712,455.944 422.232,455.944 L449.744,455.944 C450.048,451.688 450.2,446.824 450.2,441.2 C450.2,439.376 451.492,438.616 453.316,438.616 C455.216,438.616 456.356,439.528 456.356,441.2 C456.356,446.52 456.204,451.384 455.824,455.944 L485.92,455.944 C487.44,455.944 488.276,457.236 488.276,458.832 C488.276,460.504 487.44,461.872 485.92,461.872 Z M562.28,446.52 L571.932,446.52 C574.364,444.012 576.264,441.428 577.708,439.148 C578.164,438.388 579,437.932 579.912,437.932 C580.292,437.932 580.748,438.008 581.204,438.16 C582.496,438.54 583.104,439.3 583.104,440.136 C583.104,440.44 583.028,440.744 582.8,441.048 C581.508,442.872 579.76,444.848 578.012,446.52 L586.296,446.52 C590.78,446.52 592.756,448.192 592.756,452.296 L592.756,459.06 C592.756,460.428 591.692,461.264 589.944,461.264 C588.272,461.264 587.208,460.428 587.208,459.06 L587.208,452.98 C587.208,451.46 586.448,451.004 584.852,451.004 L534.844,451.004 C533.324,451.004 532.564,451.46 532.564,452.98 L532.564,458.984 C532.564,460.352 531.5,461.264 529.752,461.264 C528.08,461.264 527.092,460.352 527.092,458.984 L527.092,452.296 C527.092,448.192 528.992,446.52 533.476,446.52 L541.608,446.52 C539.936,444.544 538.416,442.872 536.896,441.276 C536.668,440.972 536.516,440.668 536.516,440.288 C536.516,439.604 536.972,438.844 538.112,438.388 C538.644,438.236 539.1,438.16 539.48,438.16 C540.468,438.16 541.228,438.616 541.76,439.148 C543.508,440.896 545.712,443.708 547.688,446.52 L556.808,446.52 L556.808,439.376 C556.808,438.084 557.796,437.248 559.544,437.248 C561.216,437.248 562.28,438.084 562.28,439.376 L562.28,446.52 Z M544.648,454.424 L575.2,454.424 C579.684,454.424 581.28,455.564 581.28,458.984 L581.28,462.936 C581.28,466.432 579.608,467.496 575.732,467.496 L544.192,467.496 C540.24,467.496 538.568,466.432 538.568,462.936 L538.568,458.984 C538.568,455.564 540.164,454.424 544.648,454.424 Z M574.136,458.452 L545.712,458.452 C544.344,458.452 543.888,458.832 543.888,459.744 L543.888,462.024 C543.888,463.012 544.344,463.468 545.712,463.468 L574.136,463.468 C575.504,463.468 575.96,463.012 575.96,462.024 L575.96,459.744 C575.96,458.832 575.504,458.452 574.136,458.452 Z M540.772,470.84 L579,470.84 C583.788,470.84 585.612,472.436 585.612,476.236 L585.612,492.88 C585.612,496.68 583.788,498.276 579.456,498.276 L540.316,498.276 C535.984,498.276 534.084,496.68 534.084,492.88 L534.084,476.236 C534.084,472.436 536.136,470.84 540.772,470.84 Z M539.48,478.82 L580.216,478.82 L580.216,476.616 C580.216,475.324 579.456,474.944 578.088,474.944 L541.532,474.944 C540.164,474.944 539.48,475.324 539.48,476.616 L539.48,478.82 Z M539.48,482.62 L539.48,486.268 L580.216,486.268 L580.216,482.62 L539.48,482.62 Z M539.48,490.068 L539.48,492.5 C539.48,493.792 540.164,494.172 541.532,494.172 L578.088,494.172 C579.456,494.172 580.216,493.792 580.216,492.5 L580.216,490.068 L539.48,490.068 Z M547.384,500.176 C547.992,499.948 548.524,499.796 549.056,499.796 C549.816,499.796 550.5,500.1 551.032,500.86 C551.412,501.392 551.564,501.924 551.564,502.456 C551.564,503.216 551.108,503.976 550.196,504.356 C544.192,506.864 535.452,508.688 528.84,509.372 L528.46,509.372 C526.94,509.372 525.876,508.46 525.724,506.94 L525.724,506.56 C525.724,505.116 526.636,504.28 528.308,504.204 C534.616,503.672 541.76,502.38 547.384,500.176 Z M571.172,500.1 C576.872,502.38 584.852,503.976 591.768,504.204 C593.288,504.28 594.2,505.04 594.2,506.56 C594.2,506.636 594.2,506.788 594.2,506.94 C594.048,508.536 592.984,509.448 591.388,509.448 C591.236,509.448 591.16,509.448 591.008,509.448 C583.712,508.84 574.82,507.016 569.044,504.432 C568.132,503.976 567.676,503.292 567.676,502.532 C567.676,502.076 567.828,501.544 568.132,501.088 C568.588,500.176 569.196,499.796 569.956,499.796 C570.336,499.796 570.716,499.872 571.172,500.1 Z" id="牛肉大賞"></path>
        </g>
    </g>
</svg>