<?xml version="1.0" encoding="UTF-8"?>
<svg width="400px" height="75px" viewBox="0 0 400 75" version="1.1" xmlns="http://www.w3.org/2000/svg" xmlns:xlink="http://www.w3.org/1999/xlink">
    <!-- Generator: Sketch 56.3 (81716) - https://sketch.com -->
    <title>和牛大賞</title>
    <desc>Created with Sketch.</desc>
    <g id="Website" stroke="none" stroke-width="1" fill="none" fill-rule="evenodd">
        <g id="Desktop-HD-Copy" transform="translate(-510.000000, -128.000000)" fill="#F2D850" fill-rule="nonzero">
            <path d="M533.229893,139.576101 C532.867329,139.679691 532.68605,139.912764 532.68605,140.275328 L532.68605,152.472965 C532.68605,152.887324 532.867329,153.0945 533.229893,153.0945 L542.086776,153.0945 C543.019084,153.0945 543.821893,153.431162 544.495226,154.104496 C545.16856,154.777829 545.505222,155.580638 545.505222,156.512946 C545.505222,157.445254 545.16856,158.248063 544.495226,158.921397 C543.821893,159.59473 543.019084,159.931392 542.086776,159.931392 L533.229893,159.931392 C532.867329,159.931392 532.68605,160.112671 532.68605,160.475236 L532.68605,161.174463 C532.68605,161.537028 532.815535,161.873689 533.07451,162.184459 C535.612459,164.774203 538.95318,168.529277 543.096771,173.449792 C543.8219,174.27851 544.184459,175.288495 544.184459,176.479778 C544.184459,177.515676 543.873694,178.473867 543.252155,179.35438 C542.734206,180.079508 542.034986,180.41617 541.154473,180.364375 C540.273959,180.31258 539.574739,179.924124 539.05679,179.198996 C537.658328,177.075405 535.638357,174.226729 532.996818,170.652881 C532.945023,170.601086 532.88028,170.588138 532.802588,170.614035 C532.724895,170.639933 532.68605,170.704675 532.68605,170.808265 L532.68605,198.85506 C532.68605,199.890958 532.323491,200.771458 531.598362,201.496586 C530.873234,202.221715 530.005683,202.584273 528.995682,202.584273 C527.985682,202.584273 527.11813,202.221715 526.393002,201.496586 C525.667873,200.771458 525.305314,199.890958 525.305314,198.85506 L525.305314,171.196725 C525.305314,171.093135 525.266469,171.041341 525.188777,171.041341 C525.111084,171.041341 525.072239,171.067238 525.072239,171.119033 C521.860955,178.525703 518.520235,184.53382 515.049977,189.143566 C514.532028,189.765104 513.910499,190.075869 513.18537,190.075869 C513.029985,190.075869 512.9005,190.049972 512.79691,189.998177 C511.864602,189.894587 511.165382,189.42844 510.699228,188.599722 C510.233074,187.771004 510,186.864607 510,185.880504 L510,185.414352 C510.10359,184.274864 510.517943,183.264879 511.243071,182.384366 C516.111791,176.376158 520.125835,169.073188 523.285324,160.475236 C523.337119,160.319851 523.311222,160.190366 523.207632,160.086776 C523.104042,159.983186 523.000454,159.931392 522.896864,159.931392 L513.884598,159.931392 C512.952289,159.931392 512.149481,159.59473 511.476147,158.921397 C510.802813,158.248063 510.466152,157.445254 510.466152,156.512946 C510.466152,155.580638 510.802813,154.777829 511.476147,154.104496 C512.149481,153.431162 512.952289,153.0945 513.884598,153.0945 L524.683779,153.0945 C525.098138,153.0945 525.305314,152.887324 525.305314,152.472965 L525.305314,141.829167 C525.305314,141.414808 525.098138,141.259426 524.683779,141.363016 C522.508393,141.72558 519.63382,142.114036 516.059972,142.528395 L515.593821,142.528395 C514.920487,142.528395 514.298957,142.347116 513.729214,141.984551 C513.004085,141.466602 512.486144,140.793279 512.175375,139.964561 C511.864605,139.239432 511.903451,138.55316 512.291913,137.905724 C512.680374,137.258288 513.237161,136.88278 513.96229,136.779191 C523.181781,135.380728 530.821413,133.69742 536.881415,131.729214 C537.502954,131.522034 538.098586,131.418446 538.66833,131.418446 C539.186279,131.418446 539.70422,131.496137 540.222169,131.651522 C541.309862,131.962291 542.216259,132.532026 542.941387,133.360745 C543.355747,133.878694 543.562923,134.422532 543.562923,134.992276 C543.562923,135.25125 543.537026,135.484324 543.485231,135.691503 C543.278051,136.572016 542.734213,137.167649 541.8537,137.478418 C539.160366,138.307136 536.285792,139.006357 533.229893,139.576101 Z M555.216716,184.9482 C555.216716,185.36256 555.397995,185.569736 555.760559,185.569736 L570.13357,185.569736 C570.496135,185.569736 570.677414,185.36256 570.677414,184.9482 L570.677414,144.781462 C570.677414,144.367102 570.496135,144.159926 570.13357,144.159926 L555.760559,144.159926 C555.397995,144.159926 555.216716,144.367102 555.216716,144.781462 L555.216716,184.9482 Z M548.069056,141.673783 C548.069056,140.430706 548.509306,139.355978 549.389819,138.449567 C550.270333,137.543157 551.358009,137.089958 552.652881,137.089958 L573.7074,137.089958 C574.950478,137.089958 576.025206,137.543157 576.931616,138.449567 C577.838027,139.355978 578.291225,140.430706 578.291225,141.673783 L578.291225,194.737386 C578.291225,195.773284 577.915718,196.666733 577.164692,197.417759 C576.413666,198.168785 575.520218,198.544292 574.48432,198.544292 C573.448422,198.544292 572.554973,198.168785 571.803947,197.417759 C571.052921,196.666733 570.677414,195.773284 570.677414,194.737386 L570.677414,193.183547 C570.677414,192.820983 570.496135,192.639704 570.13357,192.639704 L555.760559,192.639704 C555.397995,192.639704 555.216716,192.820983 555.216716,193.183547 L555.216716,195.514306 C555.216716,196.498409 554.867105,197.340063 554.167874,198.039294 C553.468643,198.738525 552.626989,199.088136 551.642886,199.088136 C550.658783,199.088136 549.817129,198.738525 549.117898,198.039294 C548.418666,197.340063 548.069056,196.498409 548.069056,195.514306 L548.069056,141.673783 Z M688.291076,166.6129 C689.275179,166.6129 690.129782,166.975459 690.85491,167.700587 C691.580039,168.425716 691.942598,169.280319 691.942598,170.264422 C691.942598,171.248525 691.580039,172.103127 690.85491,172.828256 C690.129782,173.553384 689.275179,173.915943 688.291076,173.915943 L661.642737,173.915943 C661.280172,173.915943 661.098893,174.12312 661.098893,174.537479 L661.098893,196.990453 C661.098893,198.078146 660.723386,198.997491 659.97236,199.748517 C659.221334,200.499543 658.301988,200.87505 657.214295,200.87505 C656.126603,200.87505 655.207257,200.499543 654.456231,199.748517 C653.705205,198.997491 653.329698,198.078146 653.329698,196.990453 L653.329698,174.537479 C653.329698,174.12312 653.148418,173.915943 652.785854,173.915943 L624.272908,173.915943 C623.288805,173.915943 622.434202,173.553384 621.709074,172.828256 C620.983945,172.103127 620.621386,171.248525 620.621386,170.264422 C620.621386,169.280319 620.983945,168.425716 621.709074,167.700587 C622.434202,166.975459 623.288805,166.6129 624.272908,166.6129 L652.785854,166.6129 C653.148418,166.6129 653.329698,166.405723 653.329698,165.991364 L653.329698,149.676054 C653.329698,149.261695 653.148418,149.054519 652.785854,149.054519 L635.693625,149.054519 C635.331061,149.054519 635.07209,149.235798 634.916705,149.598362 C633.103884,153.016825 631.342884,155.96909 629.633653,158.455245 C629.012114,159.335758 628.131614,159.879596 626.992126,160.086776 C626.681357,160.138571 626.396489,160.164468 626.137515,160.164468 C625.308796,160.164468 624.531885,159.957291 623.806756,159.542932 C622.978038,159.076778 622.460097,158.351661 622.252917,157.367558 C622.201122,157.160378 622.175225,156.927305 622.175225,156.66833 C622.175225,155.994996 622.382402,155.373467 622.796761,154.803723 C627.043942,149.365259 630.462354,142.32126 633.052098,133.671512 C633.362868,132.58382 633.984397,131.755114 634.916705,131.18537 C635.590039,130.771011 636.289259,130.563834 637.014388,130.563834 C637.325157,130.563834 637.610025,130.589731 637.868999,130.641526 C638.956692,130.848706 639.785398,131.418441 640.355142,132.350749 C640.665911,132.920493 640.821294,133.516125 640.821294,134.137664 C640.821294,134.500228 640.769499,134.862787 640.66591,135.225351 C640.044371,137.245352 639.34515,139.265323 638.568227,141.285324 C638.516432,141.440708 638.529381,141.570194 638.607073,141.673783 C638.684765,141.777373 638.801302,141.829167 638.956687,141.829167 L652.785854,141.829167 C653.148418,141.829167 653.329698,141.621991 653.329698,141.207632 L653.329698,131.884598 C653.329698,130.796905 653.705205,129.877559 654.456231,129.126533 C655.207257,128.375507 656.126603,128 657.214295,128 C658.301988,128 659.221334,128.375507 659.97236,129.126533 C660.723386,129.877559 661.098893,130.796905 661.098893,131.884598 L661.098893,141.285324 C661.098893,141.647888 661.280172,141.829167 661.642737,141.829167 L683.707251,141.829167 C684.743149,141.829167 685.6107,142.178778 686.309931,142.878009 C687.009162,143.57724 687.358772,144.431843 687.358772,145.441843 C687.358772,146.451844 687.009162,147.306446 686.309931,148.005677 C685.6107,148.704909 684.743149,149.054519 683.707251,149.054519 L661.642737,149.054519 C661.280172,149.054519 661.098893,149.261695 661.098893,149.676054 L661.098893,165.991364 C661.098893,166.405723 661.280172,166.6129 661.642737,166.6129 L688.291076,166.6129 Z M801.320913,153.793728 C801.320913,154.829626 800.945405,155.723074 800.194379,156.4741 C799.443353,157.225126 798.549905,157.600633 797.514007,157.600633 L772.885658,157.600633 C772.730274,157.600633 772.600788,157.652428 772.497199,157.756017 C772.393609,157.859607 772.367712,157.989092 772.419507,158.144477 C775.268226,166.53525 779.178682,173.786426 784.150991,179.898224 C788.242788,184.974123 793.085538,188.988167 798.679386,191.940476 C799.611694,192.458425 800.155533,193.235337 800.310917,194.271235 C800.362712,194.478414 800.388609,194.685591 800.388609,194.89277 C800.388609,195.669694 800.129639,196.394811 799.61169,197.068145 C798.782971,198.104043 797.798883,198.777366 796.659395,199.088136 C796.245036,199.24352 795.830683,199.321211 795.416324,199.321211 C794.691196,199.321211 793.966078,199.139932 793.24095,198.777368 C781.535304,191.992237 772.704407,180.623428 766.747994,164.670601 C766.696199,164.567011 766.618508,164.515217 766.514918,164.515217 C766.411329,164.515217 766.359534,164.567011 766.359534,164.670601 C761.905174,180.001889 752.970689,191.396595 739.555811,198.85506 C738.882478,199.217624 738.183257,199.398903 737.458129,199.398903 C737.043769,199.398903 736.655314,199.347109 736.292749,199.243519 C735.153262,198.93275 734.169173,198.311221 733.340455,197.378913 C732.770711,196.809169 732.485844,196.135845 732.485844,195.358922 L732.485844,194.89277 C732.641228,193.908667 733.133272,193.18355 733.961991,192.717396 C747.532253,185.621495 756.155973,174.097304 759.833411,158.144477 C759.937,157.781913 759.781618,157.600633 759.367259,157.600633 L735.593522,157.600633 C734.557624,157.600633 733.664175,157.225126 732.913149,156.4741 C732.162123,155.723074 731.786616,154.829626 731.786616,153.793728 C731.786616,152.75783 732.162123,151.864381 732.913149,151.113356 C733.664175,150.36233 734.557624,149.986822 735.593522,149.986822 L760.765714,149.986822 C761.128278,149.986822 761.335455,149.805543 761.38725,149.442979 C761.853404,145.402977 762.138271,139.602036 762.241861,132.039981 C762.293656,130.900494 762.708009,129.942303 763.484932,129.165379 C764.261856,128.388456 765.207098,128 766.320688,128 C767.434279,128 768.379521,128.388456 769.156445,129.165379 C769.881573,129.942303 770.244132,130.8487 770.244132,131.884598 C770.244132,137.9446 769.933367,143.797335 769.311829,149.442979 C769.260034,149.805543 769.415416,149.986822 769.77798,149.986822 L797.514007,149.986822 C798.549905,149.986822 799.443353,150.36233 800.194379,151.113356 C800.945405,151.864381 801.320913,152.75783 801.320913,153.793728 Z M851.342577,143.460698 C850.928218,143.460698 850.721041,143.667875 850.721041,144.082234 L850.721041,149.132211 C850.721041,150.064519 850.384379,150.880276 849.711046,151.579507 C849.037712,152.278738 848.221955,152.628349 847.263749,152.628349 C846.305544,152.628349 845.476838,152.278738 844.777607,151.579507 C844.078376,150.880276 843.728765,150.064519 843.728765,149.132211 L843.728765,142.916855 C843.728765,141.673777 844.181964,140.599049 845.088375,139.692639 C845.994785,138.786228 847.069513,138.33303 848.312591,138.33303 L855.304866,138.33303 C855.460251,138.33303 855.563839,138.281235 855.615634,138.177646 C855.667429,138.074056 855.667429,137.970468 855.615634,137.866878 C854.9423,136.882775 854.165389,135.820995 853.284875,134.681508 C852.818721,134.008174 852.702185,133.296005 852.935262,132.544979 C853.168339,131.793953 853.673331,131.314858 854.450255,131.107678 C854.968204,130.952293 855.486145,130.874602 856.004094,130.874602 C856.470248,130.874602 856.962292,130.952293 857.480241,131.107678 C858.516139,131.366653 859.370742,131.884594 860.044075,132.661517 C861.079973,133.956389 861.98637,135.147654 862.763294,136.235347 C862.970473,136.649706 862.99637,137.064059 862.840985,137.478418 C862.685601,137.892777 862.400733,138.177645 861.986374,138.33303 L872.086328,138.33303 C872.500687,138.33303 872.707863,138.15175 872.707863,137.789186 L872.707863,133.360745 C872.707863,132.324847 873.057474,131.457295 873.756705,130.758064 C874.455936,130.058833 875.310539,129.709223 876.320539,129.709223 C877.330539,129.709223 878.198091,130.058833 878.923219,130.758064 C879.648348,131.457295 880.010907,132.324847 880.010907,133.360745 L880.010907,137.789186 C880.010907,138.15175 880.218083,138.33303 880.632442,138.33303 L890.188552,138.33303 C890.033168,138.281235 890.007271,138.203543 890.11086,138.099954 C891.250348,136.753286 892.441613,135.121772 893.68469,133.205361 C894.358024,132.221258 895.212627,131.49614 896.248525,131.029986 C896.921858,130.771012 897.595182,130.641526 898.268515,130.641526 C898.682874,130.641526 899.097227,130.69332 899.511587,130.79691 C900.443895,131.055885 901.065424,131.599723 901.376193,132.428441 C901.479783,132.739211 901.531577,133.049975 901.531577,133.360745 C901.531577,133.878694 901.324401,134.370738 900.910042,134.836892 C900.081323,135.820995 899.174926,136.856877 898.190823,137.94457 C898.087234,138.04816 898.061337,138.138799 898.113131,138.216492 C898.164926,138.294184 898.242618,138.33303 898.346207,138.33303 L905.416175,138.33303 C906.711047,138.33303 907.798724,138.786228 908.679237,139.692639 C909.55975,140.599049 910,141.673777 910,142.916855 L910,149.054519 C910,150.038622 909.65039,150.880276 908.951159,151.579507 C908.251928,152.278738 907.410273,152.628349 906.42617,152.628349 C905.442067,152.628349 904.600413,152.278738 903.901182,151.579507 C903.201951,150.880276 902.85234,150.038622 902.85234,149.054519 L902.85234,144.082234 C902.85234,143.667875 902.645164,143.460698 902.230805,143.460698 L851.342577,143.460698 Z M863.462521,151.540661 C863.099957,151.540661 862.918677,151.747838 862.918677,152.162197 L862.918677,155.502951 C862.918677,155.91731 863.099957,156.124486 863.462521,156.124486 L890.033168,156.124486 C890.395733,156.124486 890.577012,155.91731 890.577012,155.502951 L890.577012,152.162197 C890.577012,151.747838 890.395733,151.540661 890.033168,151.540661 L863.462521,151.540661 Z M897.880056,155.891411 C897.880056,157.186283 897.439806,158.273959 896.559292,159.154473 C895.678779,160.034986 894.591103,160.475236 893.29623,160.475236 L860.665611,160.475236 C859.370739,160.475236 858.283062,160.034986 857.402549,159.154473 C856.522036,158.273959 856.081786,157.186283 856.081786,155.891411 L856.081786,151.773737 C856.081786,150.53066 856.522036,149.455932 857.402549,148.549521 C858.283062,147.643111 859.370739,147.189912 860.665611,147.189912 L893.29623,147.189912 C894.591103,147.189912 895.678779,147.643111 896.559292,148.549521 C897.439806,149.455932 897.880056,150.53066 897.880056,151.773737 L897.880056,155.891411 Z M860.587919,193.416623 C861.934586,192.898674 863.203542,192.639704 864.394825,192.639704 C865.534312,192.639704 866.621989,192.84688 867.657886,193.261239 C868.33122,193.520214 868.693779,194.038155 868.745574,194.815078 C868.797369,195.592002 868.512501,196.13584 867.890962,196.446609 C863.333012,198.67379 857.71335,200.616069 851.031809,202.273506 C850.462065,202.377095 849.89233,202.428889 849.322586,202.428889 C847.56156,202.428889 845.955942,201.677875 844.505685,200.175823 C844.143121,199.813259 843.961841,199.373009 843.961841,198.85506 C843.961841,198.699675 843.987738,198.518396 844.039533,198.311216 C844.246713,197.534293 844.738757,197.094043 845.51568,196.990453 C851.627478,196.00635 856.651507,194.815085 860.587919,193.416623 Z M859.267156,183.549745 C858.904591,183.549745 858.723312,183.756922 858.723312,184.171281 L858.723312,186.812807 C858.723312,187.175371 858.904591,187.356651 859.267156,187.356651 L894.850069,187.356651 C895.264429,187.356651 895.471605,187.175371 895.471605,186.812807 L895.471605,184.171281 C895.471605,183.756922 895.264429,183.549745 894.850069,183.549745 L859.267156,183.549745 Z M859.267156,175.78055 C858.904591,175.78055 858.723312,175.96183 858.723312,176.324394 L858.723312,178.888228 C858.723312,179.302587 858.904591,179.509764 859.267156,179.509764 L894.850069,179.509764 C895.264429,179.509764 895.471605,179.302587 895.471605,178.888228 L895.471605,176.324394 C895.471605,175.96183 895.264429,175.78055 894.850069,175.78055 L859.267156,175.78055 Z M859.267156,168.011355 C858.904591,168.011355 858.723312,168.218531 858.723312,168.632891 L858.723312,171.119033 C858.723312,171.533392 858.904591,171.740569 859.267156,171.740569 L894.850069,171.740569 C895.264429,171.740569 895.471605,171.533392 895.471605,171.119033 L895.471605,168.632891 C895.471605,168.218531 895.264429,168.011355 894.850069,168.011355 L859.267156,168.011355 Z M902.774649,187.123575 C902.774649,188.366652 902.32145,189.44138 901.415039,190.347791 C900.508629,191.254202 899.433901,191.7074 898.190823,191.7074 L888.790097,191.7074 C888.738302,191.7074 888.712405,191.720349 888.712405,191.746246 C888.712405,191.772144 888.738302,191.785092 888.790097,191.785092 C895.057279,193.442529 901.246676,195.28122 907.358474,197.301221 C908.238987,197.560195 908.679237,198.155827 908.679237,199.088136 C908.679237,199.813264 908.342575,200.357102 907.669241,200.719667 C906.270779,201.49659 904.820544,201.885046 903.318492,201.885046 C902.179005,201.885046 901.039534,201.677869 899.900046,201.26351 C895.60107,199.657868 891.094982,198.181736 886.381647,196.835069 C885.449339,196.576094 884.9055,195.993411 884.750116,195.087 C884.594731,194.180589 884.879599,193.46842 885.604727,192.950471 L886.847798,192.018168 C886.951388,191.966373 886.990234,191.90163 886.964336,191.823938 C886.938439,191.746246 886.873696,191.7074 886.770107,191.7074 L856.159478,191.7074 C854.9164,191.7074 853.841672,191.254202 852.935262,190.347791 C852.028851,189.44138 851.575653,188.366652 851.575653,187.123575 L851.575653,168.399815 C851.575653,167.156737 852.028851,166.082009 852.935262,165.175599 C853.841672,164.269188 854.9164,163.81599 856.159478,163.81599 L898.190823,163.81599 C899.433901,163.81599 900.508629,164.269188 901.415039,165.175599 C902.32145,166.082009 902.774649,167.156737 902.774649,168.399815 L902.774649,187.123575 Z" id="和牛大賞"></path>
        </g>
    </g>
</svg>