<svg width="212" height="88" xmlns="http://www.w3.org/2000/svg"><path d="M69.537 16.46a.733.733 0 00-.136-.452c-.09-.12-.226-.18-.407-.18h-7.778c-.18 0-.316.06-.407.18-.09.12-.105.272-.045.452.482 1.387.874 2.955 1.176 4.703.06.242-.03.392-.272.453h6.693c-.301-.06-.392-.211-.271-.453.422-1.386.904-2.954 1.447-4.703zm12.39 5.156c1.447 0 2.668.497 3.663 1.492.995.995 1.493 2.2 1.493 3.618 0 1.417-.498 2.637-1.493 3.662-.995 1.026-2.216 1.538-3.663 1.538h-32.65c-1.446 0-2.667-.512-3.662-1.538-.995-1.025-1.492-2.245-1.492-3.662 0-1.417.497-2.623 1.492-3.618.995-.995 2.216-1.492 3.663-1.492h.814c.482 0 .663-.211.542-.633a44.67 44.67 0 00-1.175-4.703c-.12-.302-.332-.453-.633-.453-1.086 0-2.005-.376-2.759-1.13-.754-.754-1.13-1.673-1.13-2.759v-1.085c0-1.387.482-2.562 1.447-3.527.964-.965 2.14-1.447 3.527-1.447h7.687c.423 0 .634-.211.634-.633 0-1.387.482-2.563 1.447-3.528.964-.964 2.14-1.447 3.527-1.447h2.623c1.386 0 2.562.483 3.527 1.447.965.965 1.447 2.14 1.447 3.528 0 .422.211.633.633.633h9.858c1.387 0 2.563.482 3.528 1.447.964.965 1.447 2.14 1.447 3.527v1.266c0 1.025-.362 1.9-1.086 2.623a3.573 3.573 0 01-2.623 1.085c-.301 0-.512.12-.633.362l-2.442 4.794c-.06.18-.045.331.046.452.09.12.226.18.407.18h1.99zM26.215 16.46c.06-.18.045-.331-.045-.452-.09-.12-.226-.18-.407-.18h-7.507c-.18 0-.316.06-.407.18a.733.733 0 00-.135.452 50.278 50.278 0 011.175 4.523c.12.422.392.633.814.633h5.427c-.302-.06-.422-.211-.362-.453a75.667 75.667 0 001.447-4.703zm11.124 5.156c1.387 0 2.593.497 3.618 1.492s1.538 2.2 1.538 3.618c0 1.417-.513 2.637-1.538 3.662-1.025 1.026-2.23 1.538-3.618 1.538H5.866c-1.447 0-2.668-.512-3.663-1.538C1.208 29.363.71 28.143.71 26.726c0-1.417.497-2.623 1.492-3.618.995-.995 2.216-1.492 3.663-1.492h1.628c.482 0 .663-.211.542-.633-.422-2.05-.814-3.618-1.175-4.703-.121-.302-.332-.453-.634-.453-1.085 0-2.02-.392-2.803-1.175-.784-.784-1.176-1.719-1.176-2.804v-.995c0-1.387.482-2.562 1.447-3.527.965-.965 2.14-1.447 3.527-1.447h8.411c.423 0 .634-.211.634-.633 0-1.387.482-2.563 1.447-3.528.964-.964 2.14-1.447 3.527-1.447h2.08c1.387 0 2.563.483 3.527 1.447.965.965 1.447 2.14 1.447 3.528 0 .422.211.633.633.633h8.05c1.326 0 2.472.482 3.437 1.447.964.965 1.447 2.14 1.447 3.527v1.628c0 .904-.317 1.688-.95 2.351-.633.664-1.402.995-2.306.995-.241 0-.422.12-.543.362a129.411 129.411 0 00-1.99 4.794c-.06.18-.045.331.046.452.09.12.195.18.316.18h.904zm22.159 22.7c-.422 0-.633.212-.633.634v4.34c0 .423.21.634.633.634H70.26c.422 0 .633-.211.633-.633V44.95c0-.422-.21-.633-.633-.633H59.498zm-42.96 0c-.422 0-.633.212-.633.634v4.34c0 .423.21.634.633.634H27.21c.482 0 .724-.211.724-.633V44.95c0-.422-.242-.633-.724-.633H16.538zm60.506 30.57h.904c.18 0 .362-.06.543-.181.301-.12.512-.362.633-.723.06-.121.15-.453.271-.995.12-.724.211-1.749.271-3.075.06-.965.513-1.658 1.357-2.08.844-.423 1.658-.392 2.442.09.362.18.723.392 1.085.633 1.447.784 2.593 1.839 3.437 3.165.663 1.086.995 2.231.995 3.437v.905c-.302 2.23-.663 3.949-1.085 5.155-.664 2.05-1.81 3.587-3.437 4.612-1.387.965-3.256 1.447-5.608 1.447h-5.517c-3.135 0-5.486-.874-7.054-2.622-.905-.965-1.507-2.065-1.809-3.301-.301-1.237-.452-3.362-.452-6.377v-14.56c0-.423-.211-.634-.633-.634H62.3c-.422 0-.663.241-.723.724-.362 6.33-1.447 11.47-3.256 15.42-1.809 3.95-5.095 7.19-9.858 9.723-.784.361-1.568.542-2.352.542-.603 0-1.206-.09-1.808-.271-1.327-.543-2.442-1.447-3.347-2.713a22.62 22.62 0 00-1.447-2.171c-.241-.362-.573-.452-.995-.271-2.351.964-5.577 2.23-9.677 3.798-.603.241-1.176.362-1.718.362a4.46 4.46 0 01-2.171-.543c-1.327-.663-2.17-1.688-2.532-3.075l-1.176-4.34c-.181-.604-.106-1.192.226-1.765.332-.572.799-.95 1.402-1.13.241-.06.362-.211.362-.452V60.415c0-.422-.242-.633-.724-.633h-1.9c-.421 0-.662.211-.723.633-.482 5.547-1.432 10.31-2.849 14.29-1.417 3.98-3.753 7.416-7.009 10.31-.844.664-1.749.995-2.713.995-.302 0-.633-.06-.995-.18-1.387-.302-2.502-1.056-3.346-2.262l-1.086-1.447c-.663-.904-.995-1.869-.995-2.894 0-.241.03-.452.09-.633.121-1.326.694-2.442 1.72-3.346 1.929-1.87 3.315-3.995 4.16-6.376.844-2.382 1.416-5.261 1.718-8.638.06-.301-.06-.452-.362-.452-1.085 0-1.99-.377-2.713-1.13-.724-.754-1.085-1.643-1.085-2.668v-16.1c0-1.446.512-2.697 1.537-3.752 1.025-1.056 2.291-1.583 3.799-1.583h25.052c1.447 0 2.698.527 3.753 1.583 1.056 1.055 1.583 2.306 1.583 3.753v15.194c0 1.327-.452 2.442-1.356 3.346-.905.905-2.02 1.357-3.347 1.357-.362 0-.542.211-.542.633v8.954c0 .18.06.317.18.407.121.09.272.105.453.045l1.085-.362c.482-.18.995-.27 1.537-.27.784 0 1.538.21 2.262.632 1.266.724 2.05 1.779 2.351 3.166l.271 1.447c.12.422.362.512.724.271 2.23-1.568 3.768-3.467 4.612-5.698.845-2.23 1.387-5.185 1.628-8.863.06-.241-.03-.362-.271-.362-.844 0-1.537-.286-2.08-.86a2.86 2.86 0 01-.814-2.034V39.885c0-1.447.512-2.698 1.537-3.753 1.025-1.056 2.292-1.583 3.799-1.583H78.4c1.508 0 2.774.527 3.799 1.583 1.025 1.055 1.537 2.306 1.537 3.753v14.561c0 1.447-.512 2.698-1.537 3.753-1.025 1.056-2.291 1.583-3.799 1.583h-1.9c-.482 0-.723.211-.723.633v12.753c0 .422.06.813.181 1.175.181.362.543.543 1.086.543zm107.203-57.521c.483 0 .724-.241.724-.724v-1.718c0-.482-.241-.724-.724-.724h-1.718c-.422 0-.633.242-.633.724v1.718c0 .483.21.724.633.724h1.718zm12.12 14.923c.482 0 .723-.241.723-.724v-3.98c0-.482-.241-.723-.723-.723h-1.99c-.422 0-.633.241-.633.724v3.98c0 .482.21.723.633.723h1.99zM170.77 26.86c-.422 0-.633.241-.633.724v3.98c0 .482.211.723.633.723h1.538c.422 0 .633-.241.633-.724v-3.98c0-.482-.21-.723-.633-.723h-1.538zm14.2.724c0-.483-.241-.724-.724-.724h-1.808c-.423 0-.634.241-.634.724v3.98c0 .482.211.723.634.723h1.808c.483 0 .724-.241.724-.724v-3.98zm-14.019-10.22c.422 0 .633-.241.633-.724v-1.718c0-.482-.21-.724-.633-.724H162c-1.508 0-2.774-.512-3.799-1.537s-1.537-2.261-1.537-3.708.512-2.698 1.537-3.754c1.025-1.055 2.291-1.582 3.799-1.582h43.683c1.447 0 2.683.527 3.708 1.582 1.025 1.056 1.538 2.307 1.538 3.754s-.513 2.683-1.538 3.708c-1.025 1.025-2.26 1.537-3.708 1.537h-9.768c-.482 0-.723.242-.723.724v1.718c0 .483.241.724.723.724h7.326c1.447 0 2.698.527 3.753 1.583 1.056 1.055 1.583 2.306 1.583 3.753v13.747c0 1.507-.527 2.774-1.583 3.799-1.055 1.025-2.306 1.537-3.753 1.537h-38.709c-1.507 0-2.774-.512-3.799-1.537s-1.537-2.292-1.537-3.799V22.701c0-1.447.512-2.698 1.537-3.753 1.025-1.056 2.292-1.583 3.799-1.583h6.421zm33.735 28.037c.965.904 1.447 2.005 1.447 3.301 0 1.296-.467 2.412-1.402 3.346-.934.935-2.065 1.402-3.391 1.402h-34.278c-1.266 0-2.366-.467-3.3-1.402-.935-.934-1.403-2.05-1.403-3.346 0-1.296.468-2.412 1.402-3.346.935-.935 2.035-1.402 3.301-1.402h34.278c1.326 0 2.442.482 3.346 1.447zm-49.29 1.628c.783 1.326 1.175 2.713 1.175 4.16 0 1.749-.512 3.346-1.537 4.794l-.633.814c-.543.844-1.297 1.266-2.262 1.266-.12 0-.27-.03-.452-.09-1.085-.121-1.869-.694-2.351-1.72-.302-.723-.905-2.14-1.81-4.25-.06-.06-.12-.09-.18-.09s-.09.03-.09.09v30.66c0 1.507-.528 2.773-1.583 3.798-1.055 1.026-2.306 1.538-3.753 1.538h-1.448c-1.507 0-2.773-.512-3.798-1.538-1.025-1.025-1.538-2.29-1.538-3.798V58.425c0-.06-.045-.105-.135-.135-.09-.03-.136-.015-.136.045-1.266 3.497-2.562 6.512-3.889 9.044-.482.905-1.176 1.357-2.08 1.357h-.362c-1.025-.12-1.779-.663-2.26-1.628a42.729 42.729 0 00-1.177-2.352c-.723-1.447-1.085-2.894-1.085-4.34 0-1.629.452-3.257 1.357-4.885 3.738-6.753 6.632-14.651 8.682-23.695.06-.423-.12-.634-.543-.634h-3.346c-1.447 0-2.698-.527-3.753-1.582-1.055-1.055-1.583-2.307-1.583-3.754v-1.808c0-1.448.528-2.699 1.583-3.754 1.055-1.055 2.306-1.583 3.753-1.583h4.25c.483 0 .724-.21.724-.633V5.336c0-1.447.513-2.698 1.538-3.753C137.7.528 138.966 0 140.473 0h1.448c1.447 0 2.698.528 3.753 1.583 1.055 1.055 1.583 2.306 1.583 3.753v12.752c0 .422.21.633.633.633h2.532c1.447 0 2.698.528 3.753 1.583 1.056 1.055 1.583 2.306 1.583 3.754v1.808c0 1.447-.527 2.699-1.583 3.754-1.055 1.055-2.306 1.582-3.753 1.582h-2.532c-.422 0-.633.211-.633.634v1.808c0 .422.12.814.361 1.176 1.749 2.533 4.342 6.602 7.778 12.21zm6.15 23.334c.964-1.206 2.2-1.96 3.708-2.261.422-.12.874-.181 1.356-.181.965 0 1.9.241 2.804.723l.904.453c1.266.663 2.05 1.688 2.352 3.075.12.361.18.723.18 1.085 0 .965-.331 1.839-.994 2.623-2.231 2.713-4.552 5.155-6.964 7.326-.965.844-2.05 1.266-3.256 1.266-.181 0-.392-.03-.633-.09-1.447-.121-2.713-.724-3.799-1.81a3.15 3.15 0 00-.633-.633c-.904-.904-1.357-1.99-1.357-3.256 0-1.447.543-2.622 1.628-3.527a70.69 70.69 0 004.703-4.793zm48.205-13.386c1.025 1.025 1.537 2.261 1.537 3.709 0 1.447-.512 2.698-1.537 3.753-1.025 1.055-2.261 1.583-3.708 1.583h-15.556c-.422 0-.633.21-.633.633v9.948c0 2.653-.287 4.733-.86 6.24-.572 1.508-1.612 2.684-3.12 3.528-1.628.844-3.768 1.387-6.421 1.628h-.543c-1.266 0-2.442-.422-3.527-1.266a8.152 8.152 0 01-2.532-3.799 8.69 8.69 0 01-.181-.633 2.592 2.592 0 01-.272-1.176c0-.723.242-1.386.724-1.99.663-1.024 1.628-1.567 2.894-1.627h.181c.482 0 .814-.076.995-.226.18-.151.271-.438.271-.86v-9.767c0-.422-.241-.633-.723-.633h-15.285c-1.447 0-2.683-.528-3.708-1.583-1.025-1.055-1.538-2.306-1.538-3.753 0-1.448.513-2.684 1.538-3.709s2.26-1.537 3.708-1.537h44.588c1.447 0 2.683.512 3.708 1.537zm-15.556 19.265c-.784-.845-1.176-1.84-1.176-2.985 0-.18.03-.392.09-.633.121-1.387.754-2.442 1.9-3.166l.543-.361a6.817 6.817 0 013.708-1.086h.633c1.567.12 2.894.724 3.98 1.81 1.929 1.929 3.617 3.768 5.064 5.516.724.905 1.085 1.87 1.085 2.894 0 .302-.03.633-.09.995-.302 1.387-1.055 2.533-2.261 3.437l-1.266.814c-.905.603-1.87.904-2.895.904a6.59 6.59 0 01-1.085-.09c-1.387-.302-2.532-1.025-3.437-2.17a140.09 140.09 0 00-4.793-5.88z" fill="#FFD5D5" fill-rule="nonzero" opacity=".556"/></svg>