<svg width="362" height="73" xmlns="http://www.w3.org/2000/svg"><path d="M13.623 36.372c0 .38.166.57.499.57h4.136c.38 0 .57-.19.57-.57v-5.99c0-.38-.19-.57-.57-.57h-4.065c-.332 0-.499.19-.499.57v.927c0 2.187-.024 3.875-.071 5.063zm5.206-22.25c0-.38-.19-.57-.57-.57h-4.066c-.332 0-.499.19-.499.57v5.634c0 .333.167.5.5.5h4.064c.38 0 .57-.167.57-.5v-5.634zM24.39 3.995c1.141 0 2.128.404 2.96 1.213.832.808 1.248 1.806 1.248 2.995v51.775c0 2.472-.226 4.433-.677 5.883-.452 1.45-1.296 2.556-2.532 3.316-1.522 1.046-3.637 1.688-6.347 1.926h-.357c-.998 0-1.902-.333-2.71-.998-.95-.809-1.569-1.807-1.854-2.996a16.735 16.735 0 00-.57-2.21 3.389 3.389 0 01-.143-.928c0-.618.19-1.188.57-1.711.57-.76 1.332-1.141 2.282-1.141h1.427c.76 0 1.14-.452 1.14-1.355V47.212c0-.332-.19-.499-.57-.499h-4.493c-.332 0-.523.167-.57.5-.57 8.415-1.688 15.427-3.352 21.037-.333.999-.998 1.664-1.997 1.997-.38.095-.76.143-1.14.143a3.49 3.49 0 01-1.784-.5l-1.283-.713c-1.046-.522-1.807-1.33-2.282-2.424A5.319 5.319 0 011 64.827c0-.428.071-.88.214-1.355.856-3.043 1.521-6.644 1.997-10.804.475-4.16.76-7.726.856-10.697.095-2.972.142-6.526.142-10.662V8.203c0-1.189.404-2.187 1.213-2.995.808-.809 1.806-1.213 2.995-1.213H24.39zm20.54 11.767c0-.333-.167-.499-.5-.499h-2.425c-.38 0-.57.166-.57.5v14.262c0 .38.19.57.57.57h2.425c.333 0 .5-.19.5-.57V15.762zm11.624 14.834c.332 0 .499-.19.499-.57V15.761c0-.333-.167-.499-.5-.499h-2.353c-.38 0-.57.166-.57.5v14.262c0 .38.19.57.57.57h2.354zM45.429 60.263h10.413c1.473 0 2.496-.511 3.066-1.533.57-1.022 1.022-3.102 1.355-6.24.095-.951.547-1.64 1.355-2.068.476-.238.927-.357 1.355-.357.428 0 .856.095 1.284.285.57.286 1.165.547 1.783.785 1.188.475 2.115 1.212 2.78 2.21.524.809.785 1.665.785 2.568v.642c-.76 4.992-2.092 8.534-3.993 10.626-1.902 2.092-4.826 3.138-8.772 3.138H44.217c-3.375 0-5.967-.428-7.773-1.284-1.807-.856-3.114-2.342-3.923-4.457-.808-2.116-1.212-5.194-1.212-9.236V9.415c0-1.14.404-2.127 1.212-2.96.809-.831 1.807-1.247 2.996-1.247h27.527c1.141 0 2.128.416 2.96 1.248.832.832 1.248 1.818 1.248 2.96v30.38c0 1.188-.416 2.187-1.248 2.995-.832.808-1.819 1.212-2.96 1.212H60.12c-.855 0-1.58-.297-2.175-.891-.594-.595-.891-1.32-.891-2.175 0-.238-.119-.357-.357-.357h-14.69c-.381 0-.571.166-.571.5v14.334c0 2.187.214 3.542.642 4.065.428.523 1.545.784 3.351.784zm120.761-8.7c0 1.14-.404 2.127-1.212 2.96-.808.831-1.807 1.247-2.995 1.247h-17.187c-.048 0-.096.036-.143.107-.048.071-.024.13.071.178 4.232 3.186 10.602 5.183 19.113 5.991.856.048 1.45.475 1.783 1.284.142.332.214.665.214.998 0 .428-.143.856-.428 1.284a41.593 41.593 0 00-1.783 2.852 7.188 7.188 0 01-2.639 2.568c-.856.428-1.711.642-2.567.642-.285 0-.594-.024-.927-.072-5.943-.95-10.852-2.531-14.727-4.742s-7.143-5.242-9.806-9.093c-.047-.143-.13-.202-.25-.178a.621.621 0 00-.32.178c-1.95 3.233-4.921 5.943-8.915 8.13-3.993 2.187-9.485 3.97-16.474 5.349a5.648 5.648 0 01-.927.071c-.808 0-1.592-.214-2.353-.642a6.31 6.31 0 01-2.425-2.567l-1.283-2.282c-.286-.476-.428-.951-.428-1.427 0-.332.07-.689.214-1.07.38-.855 1.022-1.354 1.925-1.497 8.32-1.284 14.216-3.185 17.686-5.705.048-.095.06-.179.036-.25-.024-.071-.083-.107-.178-.107H103.29c-1.141 0-2.128-.416-2.96-1.248-.832-.832-1.248-1.818-1.248-2.96v-.784c0-1.188.416-2.187 1.248-2.995.832-.808 1.819-1.212 2.96-1.212h20.967c.38 0 .594-.167.642-.5.095-.57.214-1.307.356-2.21.048-.333-.119-.5-.5-.5h-21.037c-1.141 0-2.128-.416-2.96-1.248-.832-.832-1.248-1.818-1.248-2.96v-.998c0-1.188.416-2.187 1.248-2.995.832-.808 1.819-1.212 2.96-1.212h22.607c.333 0 .5-.19.5-.57v-1.356c0-.333-.167-.499-.5-.499h-16.403c-1.14 0-2.127-.416-2.96-1.248-.831-.832-1.247-1.819-1.247-2.96v-.428c0-1.14.416-2.127 1.248-2.96.832-.831 1.818-1.247 2.96-1.247h16.402c.333 0 .5-.167.5-.5v-1.354c0-.38-.167-.57-.5-.57h-19.612c-1.14 0-2.127-.405-2.96-1.213-.831-.808-1.247-1.807-1.247-2.995v-.856c0-1.141.416-2.128 1.248-2.96.832-.832 1.818-1.248 2.96-1.248h6.774c.143 0 .25-.047.321-.142.071-.096.06-.19-.036-.286a17.43 17.43 0 00-.428-.927 3.49 3.49 0 01-.499-1.783c0-.38.048-.76.143-1.14.333-1.047.998-1.76 1.997-2.14l1.64-.57a5.199 5.199 0 012.068-.429c.523 0 1.022.072 1.498.214 1.236.333 2.187 1.022 2.852 2.068a27.308 27.308 0 011.926 3.352c.143.333.143.666 0 .999-.143.332-.404.57-.785.713v.035c0 .024.024.036.072.036h15.76c-.332-.095-.57-.32-.713-.677a1.136 1.136 0 01.072-1.034c.57-.951 1.14-1.973 1.711-3.067a5.363 5.363 0 012.496-2.425c.713-.38 1.45-.57 2.211-.57.38 0 .76.047 1.141.142l3.28.785c.999.238 1.688.832 2.069 1.783.142.333.214.69.214 1.07 0 .522-.19 1.045-.57 1.568-.381.523-.88 1.189-1.499 1.997a.303.303 0 000 .286c.048.095.12.142.214.142h7.56c1.14 0 2.127.416 2.96 1.248.831.832 1.247 1.819 1.247 2.96v.856c0 1.188-.416 2.187-1.248 2.995-.832.808-1.818 1.212-2.96 1.212h-19.896c-.333 0-.5.19-.5.57v1.356c0 .332.167.499.5.499h17.187c1.14 0 2.127.416 2.96 1.248.831.832 1.247 1.818 1.247 2.96v.427c0 1.141-.416 2.128-1.248 2.96-.832.832-1.818 1.248-2.96 1.248h-17.186c-.333 0-.5.166-.5.5v1.354c0 .38.167.57.5.57h22.82c1.142 0 2.128.405 2.96 1.213.832.808 1.248 1.807 1.248 2.995v.999c0 1.14-.416 2.127-1.248 2.96-.832.831-1.818 1.247-2.96 1.247h-24.032c-.38 0-.595.167-.642.5-.095.903-.19 1.616-.286 2.139-.047.38.12.57.5.57h25.317c1.188 0 2.187.405 2.995 1.213.808.808 1.212 1.807 1.212 2.995v.785zm53.582-17.259c-.285 0-.428.143-.428.428 0 .285.095.547.285.785 1.902 1.949 4.422 4.683 7.56 8.2.855 1 1.283 2.188 1.283 3.567a5.64 5.64 0 01-.927 3.138l-1.284 1.854c-.522.76-1.212 1.14-2.068 1.14h-.142c-.951-.047-1.688-.475-2.211-1.283-.523-.856-1.26-2.068-2.21-3.637-.048-.095-.108-.13-.18-.107-.07.024-.106.083-.106.178v19.184c0 1.189-.416 2.187-1.248 2.995-.832.809-1.819 1.213-2.96 1.213h-2.282c-1.14 0-2.127-.404-2.96-1.213-.831-.808-1.247-1.806-1.247-2.995V50.28c0-.048-.024-.071-.072-.071-.047 0-.095.023-.142.07-1.807 4.185-3.756 7.774-5.848 10.77-.428.665-1.022.998-1.783.998h-.428c-.903-.143-1.569-.642-1.997-1.498a77.75 77.75 0 00-1.426-2.567 6.128 6.128 0 01-.785-2.995v-.5a6.21 6.21 0 011.284-3.351c3.423-4.66 6.252-10.103 8.487-16.332.047-.142.023-.261-.072-.356-.095-.095-.19-.143-.285-.143h-5.135c-1.14 0-2.127-.416-2.96-1.248-.831-.832-1.247-1.818-1.247-2.96v-1.354c0-1.189.416-2.187 1.248-2.996.832-.808 1.818-1.212 2.96-1.212h7.701c.333 0 .5-.19.5-.57v-6.775c0-.38-.167-.547-.5-.5-1.569.238-3.185.476-4.85.714-.19.047-.403.07-.64.07-.904 0-1.76-.284-2.568-.855a5.114 5.114 0 01-2.068-2.71 2.767 2.767 0 00-.143-.356 3.84 3.84 0 01-.214-1.213c0-.57.143-1.117.428-1.64.523-.951 1.284-1.498 2.282-1.64 6.846-1.141 12.98-2.615 18.4-4.422a7 7 0 011.925-.285c.57 0 1.14.071 1.711.214a5.96 5.96 0 012.996 1.925l1.497 1.854c.428.523.642 1.118.642 1.783 0 .238-.047.523-.142.856-.286.951-.904 1.57-1.855 1.854-1.664.476-3.565.999-5.705 1.57-.333.047-.5.26-.5.641v8.915c0 .38.167.57.5.57h4.778c1.141 0 2.128.404 2.96 1.212.832.809 1.248 1.807 1.248 2.996v1.355c0 1.14-.416 2.127-1.248 2.96-.832.831-1.819 1.247-2.96 1.247h-4.85zM240.81 51.92c0 .38.166.57.499.57h8.13c.38 0 .57-.19.57-.57V20.255c0-.38-.19-.57-.57-.57h-8.13c-.333 0-.5.19-.5.57V51.92zm-10.412-38.154c0-1.188.416-2.187 1.248-2.995.832-.808 1.818-1.212 2.96-1.212h22.107c1.189 0 2.187.404 2.995 1.212.809.808 1.213 1.807 1.213 2.995v49.85c0 1.14-.404 2.127-1.213 2.96-.808.832-1.806 1.248-2.995 1.248h-2.496c-1.188 0-2.187-.416-2.995-1.249-.808-.832-1.212-1.818-1.212-2.96v-.427c0-.38-.19-.57-.571-.57h-8.13c-.333 0-.5.19-.5.57v.927c0 1.141-.415 2.128-1.247 2.96-.832.832-1.819 1.248-2.96 1.248h-1.997c-1.14 0-2.127-.416-2.96-1.248-.831-.832-1.247-1.819-1.247-2.96V13.765zm126.394 22.536c1.141 0 2.128.416 2.96 1.248.832.832 1.248 1.819 1.248 2.96v2.14c0 1.14-.416 2.127-1.248 2.959-.832.832-1.819 1.248-2.96 1.248h-22.321c-.38 0-.57.19-.57.57v18.756c0 1.141-.417 2.128-1.249 2.96-.832.832-1.818 1.248-2.96 1.248h-2.923c-1.141 0-2.128-.416-2.96-1.248-.832-.832-1.248-1.819-1.248-2.96V47.426c0-.38-.166-.57-.5-.57h-24.246c-1.141 0-2.128-.416-2.96-1.248-.832-.832-1.248-1.819-1.248-2.96v-2.14c0-1.14.416-2.127 1.248-2.959.832-.832 1.819-1.248 2.96-1.248h24.247c.333 0 .499-.19.499-.57V23.75c0-.333-.166-.5-.5-.5H308.94c-.333 0-.57.167-.713.5-1.237 2.472-2.496 4.683-3.78 6.632-.618.95-1.521 1.545-2.71 1.783a6.583 6.583 0 01-.927.071c-.856 0-1.64-.214-2.354-.642-.903-.428-1.878-.903-2.924-1.426-.903-.38-1.473-1.094-1.711-2.14a3.441 3.441 0 01.57-2.71c1.712-2.234 3.257-4.896 4.636-7.987a79.92 79.92 0 003.851-10.911c.333-1.141.975-2.02 1.925-2.639.761-.475 1.546-.713 2.354-.713.285 0 .57.024.856.071l2.852.571c1.141.19 2.02.784 2.639 1.783.38.618.57 1.284.57 1.997 0 .333-.047.69-.142 1.07-.333 1.093-.713 2.33-1.141 3.708-.048.142-.024.261.071.356.095.095.19.143.285.143h8.843c.38 0 .571-.166.571-.5v-7.06c0-1.14.416-2.127 1.248-2.959.832-.832 1.819-1.248 2.96-1.248h2.924c1.14 0 2.127.416 2.96 1.248.831.832 1.247 1.819 1.247 2.96v6.989c0 .38.167.57.5.57h18.113c1.142 0 2.128.416 2.96 1.248.832.832 1.248 1.819 1.248 2.96v2.068c0 1.14-.416 2.127-1.248 2.96-.832.831-1.818 1.247-2.96 1.247h-18.042c-.38 0-.57.167-.57.5v11.98c0 .38.19.571.57.571h22.321z" fill="#FFF" fill-rule="nonzero" stroke="#312A2A" stroke-width=".8"/></svg>