<svg width="329" height="152" xmlns="http://www.w3.org/2000/svg" xmlns:xlink="http://www.w3.org/1999/xlink"><defs><path id="a" d="M0 .965h205.843V106.26H0z"/></defs><g fill="none" fill-rule="evenodd"><g transform="translate(1 37.592)" fill="#FFF" stroke="#DEB5B5"><ellipse fill-opacity=".9" cx="163.301" cy="72.769" rx="108.803" ry="40.277"/><ellipse fill-opacity=".8" cx="163.301" cy="46.031" rx="163.301" ry="46.031"/></g><path d="M249.647 84.867a6.816 6.816 0 00-1.96.327c1.272-.752 2.506-1.623 3.718-2.575l-1.758 2.248m-14.183 5.375a4.106 4.106 0 00-1.18-.489 38.772 38.772 0 004.364-.837c-1.06.441-2.124.883-3.184 1.326m-42.026-7.703a5.813 5.813 0 00-1.193-.159 5.446 5.446 0 00-1.177-.519c-1.693-.51-3.395-.966-5.104-1.39.968.124 1.936.264 2.904.404 2.73.79 5.292 1.632 7.747 2.472a227.54 227.54 0 00-3.177-.808m-75.685.078a3.93 3.93 0 00-1.755.77l-4.018.849a5.05 5.05 0 00-1.728.704 1.575 1.575 0 00-.438-.44c.778-.189 1.527-.355 2.33-.561a283.116 283.116 0 0114.044-3.208c.172.144.352.273.55.39-2.995.5-5.99.999-8.985 1.496m144.525 4.73c.116-.25.25-.459.408-.685.13-.18.278-.34.44-.49.016-.042.04-.083.055-.124.1-.497.346-.97.716-1.375.035-.071.053-.147.097-.213.084-.127.165-.256.246-.381.035-.054.08-.097.12-.149.026-.086.028-.174.06-.256-.034.058-.071.116-.108.174l.041-.103c.162-.418.401-.775.69-1.076.01-.009.019-.018.026-.028l-.007.013c.02-.022.044-.035.065-.054.088-.72.421-1.404 1.037-1.854-.055-.14-.104-.284-.18-.415.514-3.542.04-7.406 0-10.98.23-.93.475-1.858.757-2.783.204-.668-.37-1.098-.947-1.118-.477-.122-1.059.03-1.262.588a54.471 54.471 0 01-3.145 6.992c-.371-.083-.781.011-1.036.4l-1.257 1.947a4.014 4.014 0 00-1.346 1.834c-.079.222-.185.442-.278.663-.136.196-.275.388-.41.584-.472.02-.94.084-1.382.228 2.804-3.003 5.414-6.676 7.781-11.171 14.61-27.739-31.675-54.496-41.815-57.841-10.142-3.344-31.77-13.113-71.881.378-27.48 10.642-72.048 43.521-80.143 48.955-4.59 3.08-9.595 13.955-4.694 21.479-.56-.158-1.309.118-1.353.83-.303 4.773-1.577 10.745.044 15.305.142.656.4 1.218.765 1.681.41.698.91 1.35 1.53 1.938 3.602 10.841 36.41 3.94 43.08 2.52 1.304-.277 2.105-.968 2.506-1.81 9.29-1.509 18.537-3.229 27.734-5.216.725-.157 1.28-.454 1.714-.825 7.406-.445 14.776-1.227 22.127-2.426.002 0 .004 0 .007-.002 11.394 2.14 22.567 4.964 33.55 8.532.972.316 1.822.264 2.535-.013 6.673 2.863 13.361 5.522 21.015 5.978.237.015.45-.002.663-.02.352.123.692.265 1.049.384.653.217 1.25.262 1.795.19.623.587 1.508.953 2.723.839 7.71-.721 14.853-3.068 21.104-7.382.57-.392.963-.863 1.236-1.367 3.034-1.419 5.918-3.236 8.625-5.625.792-.698 1.133-1.537 1.142-2.37a54.64 54.64 0 003.72-4.168c.013-.037.023-.076.041-.112" fill="#FED6CC"/><path d="M84.048 56.878c9.567-6.385 32.838-25.313 48.784-25.995 15.948-.687 23.183-1.826 32.69 5.929 9.51 7.752 11.703 19.803-3.004 28.124-16.927 9.578-28.489 5.255-48.251 10.112-16.286 4.002-37.892 7.22-41.29.417-2.337-4.676-.572-11.175 11.07-18.587" fill="#BC2936"/><path d="M170.37 68.281c10.549-3.192 12.756-17.558 8.587-25.769-4.171-8.208 2.944-24.171 19.871-24.402 16.928-.226 41.051 6.691 53.727 26.682 12.675 19.993-9.7 33.491-17.143 34.626-18.186 2.775-37.32-7.716-65.043-11.137" fill="#BC2936"/><path d="M203.898 12.03c-19.79-9.883-53.156 2.571-69.021 12.618 0 0 29.71-1.672 36.146 5.742 2.082-9.694 15.538-18.208 32.875-18.36" fill="#BC2936"/><g fill="#F8B3A0"><path d="M264.548 64.985s-.46.69-1.098 1.678l1.976-3.632-.878 1.954zm1.737-13.832l-2.566-6.109-3.344-5.942-7.576-9.058-5.216-4.78c11.597 15.46 19.62 29.394 12.99 46.17-.532.99-.898 1.803-.88 2.14.117 1.814-1.366 9.16-8.223 17.75-6.86 8.588-24.184 13.732-35.592 10.908-12.377-3.064-40.97-13.973-55.2-13.4-13.694.551-67.448 15.85-80.348 14.31-.33-.06-.677-.11-.999-.177-.02-.005-.048-.009-.069-.013-8.395-1.721-13.468-4.907-15.378-7.707l-.996-1.487.915 3.823 2.517 3.414 4.73 3.228 5.847 2.385h6.985l3.122-.558 7.115-.512L143.382 94.9l16.928-2.175 10.058 1.055 41.461 11.772 11.654 1.974 11.462-.992 11.346-4.318 6.721-4.69 8.095-8.377.975-1.374c.05-.177.115-.352.196-.523.116-.25.248-.46.408-.69a3.24 3.24 0 01.528-.564 2.831 2.831 0 01.686-1.436c.034-.071.053-.145.095-.212.083-.127.164-.255.245-.382.032-.048.072-.087.107-.132.025-.091.039-.184.074-.275a7.31 7.31 0 01-.11.177l.043-.106c.162-.417.4-.776.69-1.079.009-.01.018-.019.025-.03l-.007.013c.019-.021.047-.032.065-.052.095-.765.47-1.492 1.158-1.94v-19.43l-.86 1.916.86-4.55v-7.328zM144.391 11.81c-.07.03-.166.088-.261.144.398-.19.54-.261.261-.144M144.129 11.955c-1.82.86-9.252 4.26-9.252 4.26l-13.574 7.451-13.405 8.405c14.222-3.978 19.62-7.641 23.382-9.933 3.59-2.187 10.853-9 12.849-10.183"/><path d="M81.559 92.23c9.958.305 33.197-4.55 38.394-5.419 5.925-.992 14.373-2.465 21.16-3.077 5.826-.523 18.844-1.693 27.457-1.012 7.036.552 17.174 2.106 26.331 4.926 9.16 2.82 27.866 5.01 35.983 3.055l-6.542-.633-16.004-2.958-24.551-6.515-13.417-1.706-13.576-.292-16.191 1.152-15.212 1.635-14.556 2.936-17.502 1.864-19.461-.674-5.961-2.93c-6.747-11.694 2.387-20.649 8.129-26.506 4.479-4.57 21.203-14.337 26.143-19.753L90.776 44 72.084 56.65l-3.743 3.209-3.501 5.088-1.904 7.01v12.366c2.267 5.006 8.664 7.601 18.623 7.908"/></g><g transform="translate(61.6 -.315)"><path d="M23.103 56.009l.02-.013c1.668-1.097 3.745-2.57 6.129-4.255 10.929-7.731 29.216-20.665 42.035-21.21l4.027-.182c3.389-.16 6.335-.3 8.989-.3 7.534 0 12.708 1.12 18.857 6.074 4.979 4.006 7.58 8.992 7.135 13.676-.442 4.703-3.895 8.983-9.977 12.381-10.133 5.657-18.257 6.284-27.665 7.011-6.156.476-12.52.967-20.283 2.852-21.882 5.309-37.563 5.702-39.942.99-2.554-5.045 1.237-11.093 10.675-17.024m.634 22.425c9.808 0 22.352-2.67 29.226-4.336 7.566-1.838 13.829-2.32 19.885-2.788 9.7-.748 18.076-1.396 28.672-7.315 8.516-4.754 10.727-10.243 11.084-14.011.507-5.364-2.378-11-7.918-15.46-9.021-7.263-16.293-6.912-29.49-6.298l-4.016.185c-13.548.571-31.479 13.255-43.341 21.647-2.355 1.664-4.41 3.12-6.056 4.206C7.653 63.147 8.54 70.398 10.325 73.93c1.698 3.35 6.962 4.504 13.412 4.504" fill="#3E3A39"/><path d="M189.958 43.74c4.199 6.54 4.787 12.88 1.746 18.839-4.06 7.956-13.778 13.108-18.08 13.756-10.335 1.56-21.176-1.27-33.733-4.546-8.078-2.106-17.118-4.46-27.262-5.955 2.495-1.538 4.496-3.836 5.88-6.783 2.696-5.732 2.655-13.19-.106-18.553-1.943-3.779-1.15-9.406 1.978-14.007 2.133-3.146 7.166-8.437 16.863-8.565 16.587-.304 40.25 6.408 52.714 25.815m-71.543-18.375c-3.583 5.269-4.408 11.566-2.106 16.04 2.453 4.77 2.486 11.677.075 16.803-1.195 2.542-3.549 5.849-7.972 7.17-.517.154-.845.615-.797 1.108.051.495.466.89 1 .956 11.5 1.4 21.67 4.053 30.641 6.39 10.281 2.683 19.436 5.07 28.253 5.07 2.18 0 4.34-.147 6.49-.472 4.455-.67 15.188-5.9 19.803-14.951 3.338-6.54 2.699-13.74-1.85-20.819-12.967-20.19-37.607-27.115-54.74-26.86-7.889.104-14.74 3.591-18.797 9.565" fill="#3E3A39"/><path d="M137.347 10.068c-13.933 1.407-25.427 8.15-28.547 16.912-5.996-4.197-19.903-4.892-28.463-4.892-1.05 0-2.022.01-2.888.025 16.235-9.098 42.35-17.399 59.898-12.045m-64 14.309c8.104-.449 30.208-.376 35.175 5.274.223.255.556.396.901.396.09 0 .183-.01.276-.03.435-.098.771-.42.86-.825 2.317-10.66 17.962-17.15 31.751-17.269.528-.004.985-.336 1.112-.808.127-.471-.111-.96-.574-1.19-11.411-5.625-26.324-3.783-36.827-1.24-11.63 2.81-24.114 7.952-33.396 13.753-.429.27-.612.772-.443 1.222.17.453.632.766 1.165.717" fill="#3E3A39"/><mask id="b" fill="#fff"><use xlink:href="#a"/></mask><path d="M160.385 104.052c-4.29-.33-12.671-2.893-21.546-5.609-12.284-3.757-26.21-8.016-35.777-8.577-12.701-.735-35.648 4.467-54.079 8.654-9.49 2.155-17.684 4.016-21.784 4.41-22.31 2.127-24.679-9.64-24.753-9.976V79.01c4.648 5.511 17.085 9.634 48.325 3.879 51.823-9.544 71.115-3.893 88.14 1.09 3.55 1.04 6.904 2.023 10.464 2.846 5.451 1.256 11.322 2.253 17.244 2.253 13.206 0 26.664-4.952 36.28-22.974.216-.406.378-.814.57-1.222l-.074 11.63c-9.69 23.646-32.329 28.373-43.01 27.54zM23.037 47.024c6.096-3.583 11.803-7.3 17.845-11.232 13.998-9.115 28.473-18.538 47.7-25.895 36.662-12.165 57.409-5.041 68.558-1.212.908.31 1.744.598 2.518.85 6.188 2.017 33.32 16.441 41.546 34.945 3.212 7.228 3.083 14.19-.387 20.689-13.117 24.593-33.081 23.707-50.877 19.592-3.488-.805-6.81-1.776-10.327-2.807-10.46-3.063-21.764-6.371-40.667-6.371-12.342 0-27.926 1.41-48.63 5.223-36.272 6.68-45.237-.382-47.351-5.185-3.296-7.48 5.523-20.045 20.072-28.597zm182.801 8.114c.07-3.734-.76-7.566-2.492-11.461-8.64-19.44-36.268-33.98-42.915-36.146-.762-.246-1.586-.529-2.478-.837-11.43-3.923-32.702-11.234-70.184 1.216l-.053.017C68.239 15.373 53.65 24.873 39.541 34.058c-6.02 3.92-11.705 7.62-17.752 11.177C7.44 53.67-1.29 65.566.155 74.074H.13l.014 19.041c.023.145 2.684 14.278 27.294 11.927 4.259-.408 12.527-2.285 22.101-4.459 18.278-4.15 41.03-9.316 53.375-8.596 9.27.542 23.041 4.756 35.193 8.473 9.4 2.876 17.518 5.358 22.086 5.708a32.6 32.6 0 002.492.092c12.022 0 33.512-5.904 42.954-29.181l.204-21.94h-.005z" fill="#3E3A39" mask="url(#b)"/><ellipse fill="#D2515D" cx="171.769" cy="50.938" rx="3.554" ry="2.369"/><ellipse fill="#D2515D" cx="105.431" cy="20.138" rx="3.554" ry="2.369"/><ellipse fill="#D2515D" cx="156.369" cy="29.615" rx="4.738" ry="2.369"/><ellipse fill="#F18892" cx="136.231" cy="39.092" rx="3.554" ry="2.369"/><ellipse fill="#F18892" cx="79.369" cy="39.092" rx="3.554" ry="2.369"/><ellipse fill="#F18892" cx="52.123" cy="48.569" rx="4.738" ry="2.369"/><ellipse fill="#D2515D" cx="75.815" cy="53.308" rx="4.738" ry="2.369"/></g></g></svg>