<svg width="356" height="71" xmlns="http://www.w3.org/2000/svg" xmlns:xlink="http://www.w3.org/1999/xlink"><defs><path d="M250.972 251.004v50.184c0 4.032-.648 6.048-2.52 7.488-1.512 1.152-3.6 1.656-7.488 1.656-.36 0-1.8 0-3.816-.072-.432-4.104-1.08-6.84-2.232-9.576-1.008 4.896-1.872 7.344-3.888 11.088-3.384-4.68-4.824-6.264-8.64-9.36 1.8-3.6 2.736-6.552 3.528-11.232.936-6.048 1.44-17.208 1.44-32.112 0-7.848-.072-10.584-.504-14.112 2.52.288 4.32.36 7.56.36h10.656c3.168 0 4.68-.072 6.12-.288-.144 1.656-.216 3.024-.216 5.976zm-14.112 27.792h4.392v-6.984h-4.32l-.072 6.984zm4.392 9.576h-4.896c-.216 4.32-.72 8.352-1.296 11.376 1.728.144 3.24.288 3.96.288 1.872 0 2.232-.288 2.232-1.512v-10.152zm0-26.208v-6.84h-4.176v6.84h4.176zm23.04 19.296v16.056c0 1.512.288 1.944 1.44 2.232.792.144 3.384.288 6.264.288 5.472 0 7.128-.36 7.776-1.584.576-1.008.792-3.816.792-9.288v-1.944c4.032 1.8 6.408 2.52 10.872 3.384-.72 18.648-1.728 19.584-20.88 19.584-14.256 0-16.776-1.224-16.776-8.208v-50.76c0-2.448-.072-3.96-.216-5.832 2.088.216 4.536.288 6.768.288h21.888c2.448 0 5.04-.144 6.624-.288a80.493 80.493 0 00-.288 6.912v22.176c0 3.168.072 5.544.288 7.272a70.787 70.787 0 00-6.408-.288h-18.144zm11.016-25.704v16.128h3.24v-16.128h-3.24zm-8.28 16.128v-16.128h-3.312v16.128h3.312zm81.016 9.216h-18.216c-3.024 0-5.616.144-8.208.36v-9.648c2.376.288 4.896.432 8.208.432h18.72v-2.664h-15.336c-2.808 0-4.536.072-6.696.288v-8.496c2.088.216 3.6.288 6.696.288h15.336v-2.664h-16.632c-3.744 0-5.616.072-8.208.288v-9.504c2.52.288 4.752.432 8.208.432h6.84c-1.296-2.088-2.16-3.312-3.6-5.112l10.728-2.664c1.8 2.808 3.384 5.472 4.536 7.776h7.704c1.368-2.088 2.592-4.32 3.888-7.56l10.944 2.448a57.21 57.21 0 01-3.384 5.112h7.128c3.672 0 5.904-.144 8.208-.432v9.504c-2.376-.216-4.464-.288-8.208-.288h-17.208v2.664h15.84c3.024 0 4.608-.072 6.696-.288v8.496c-2.16-.216-3.816-.288-6.696-.288h-15.84v2.664h19.296c3.672 0 5.904-.144 8.208-.432v9.648c-2.232-.288-4.248-.36-8.208-.36h-19.512c-.144 1.296-.216 1.728-.36 2.808h18.936c3.96 0 5.76-.072 8.208-.288v9.936c-2.664-.288-5.688-.432-9.144-.432h-12.888c2.664 2.304 5.472 3.816 9.36 5.04 4.392 1.44 8.424 2.016 15.12 2.16-2.232 4.248-3.168 6.696-4.464 11.16-7.56-1.008-12.456-2.376-18.072-5.112-5.4-2.592-9-5.184-12.528-9-6.048 7.92-13.968 11.808-28.584 14.04-1.152-4.032-2.088-6.192-4.536-10.656 11.88-1.008 17.784-3.024 22.608-7.632h-11.376c-3.456 0-6.48.144-9.072.432v-9.936c2.52.216 4.68.288 8.136.288h17.064c.216-1.368.288-1.8.36-2.808zm83.176-14.04c-2.448 4.752-5.112 8.856-7.92 12.456l-5.112-6.192c4.968-5.976 9.36-14.472 13.104-25.56l7.128 1.656a165.508 165.508 0 01-3.816 10.296h14.616v-14.544h7.56v14.544h23.4v7.344h-23.4v15.696h27.36v7.416h-27.36V311.7h-7.56v-21.528h-30.024v-7.416h30.024V267.06h-18zm115.504 2.16c-3.744 6.408-8.424 11.016-14.112 13.752l-4.032-6.624c5.76-2.592 10.152-7.2 13.32-13.824h-15.336v49.464h-7.56v-56.736h25.632c.864-3.096 1.584-6.408 2.16-9.936l7.416.648a130.733 130.733 0 01-1.944 9.288h25.344v46.44c0 6.192-2.808 9.36-8.28 9.36h-10.728l-2.016-7.272 10.296.288c2.088 0 3.168-1.368 3.168-4.032v-37.512h-20.16l-.288.72c6.048 3.456 12.096 7.344 18.216 11.664l-4.248 6.408c-6.84-5.4-12.456-9.432-16.848-12.096zm.792 20.592c-3.6 5.616-8.568 9.936-14.76 13.032l-3.816-6.84c8.928-4.32 14.472-11.016 16.704-20.088l7.272.936c-.648 2.52-1.368 4.824-2.232 6.984 5.4 3.24 10.944 6.912 16.56 11.016l-4.248 6.336c-6.264-5.04-11.448-8.856-15.48-11.376z" id="a"/></defs><g transform="translate(-222 -242)" fill-rule="nonzero" fill="none"><use fill="#5F5E5E" xlink:href="#a"/><use stroke="#111" stroke-width=".7" fill="#FFF" xlink:href="#a"/></g></svg>