<svg width="369" height="71" xmlns="http://www.w3.org/2000/svg"><path d="M29.664 9.504v50.184c0 4.032-.648 6.048-2.52 7.488-1.512 1.152-3.6 1.656-7.488 1.656-.36 0-1.8 0-3.816-.072-.432-4.104-1.08-6.84-2.232-9.576-1.008 4.896-1.872 7.344-3.888 11.088-3.384-4.68-4.824-6.264-8.64-9.36 1.8-3.6 2.736-6.552 3.528-11.232.936-6.048 1.44-17.208 1.44-32.112 0-7.848-.072-10.584-.504-14.112 2.52.288 4.32.36 7.56.36H23.76c3.168 0 4.68-.072 6.12-.288-.144 1.656-.216 3.024-.216 5.976zM15.552 37.296h4.392v-6.984h-4.32l-.072 6.984zm4.392 9.576h-4.896c-.216 4.32-.72 8.352-1.296 11.376 1.728.144 3.24.288 3.96.288 1.872 0 2.232-.288 2.232-1.512V46.872zm0-26.208v-6.84h-4.176v6.84h4.176zm23.04 19.296v16.056c0 1.512.288 1.944 1.44 2.232.792.144 3.384.288 6.264.288 5.472 0 7.128-.36 7.776-1.584.576-1.008.792-3.816.792-9.288V45.72c4.032 1.8 6.408 2.52 10.872 3.384-.72 18.648-1.728 19.584-20.88 19.584-14.256 0-16.776-1.224-16.776-8.208V9.72c0-2.448-.072-3.96-.216-5.832 2.088.216 4.536.288 6.768.288h21.888c2.448 0 5.04-.144 6.624-.288a80.493 80.493 0 00-.288 6.912v22.176c0 3.168.072 5.544.288 7.272a70.787 70.787 0 00-6.408-.288H42.984zM54 14.256v16.128h3.24V14.256H54zm-8.28 16.128V14.256h-3.312v16.128h3.312zm84.437 9.216h-18.216c-3.024 0-5.616.144-8.208.36v-9.648c2.376.288 4.896.432 8.208.432h18.72V28.08h-15.336c-2.808 0-4.536.072-6.696.288v-8.496c2.088.216 3.6.288 6.696.288h15.336v-2.664H114.03c-3.744 0-5.616.072-8.208.288V8.28c2.52.288 4.752.432 8.208.432h6.84c-1.296-2.088-2.16-3.312-3.6-5.112L127.997.936c1.8 2.808 3.384 5.472 4.536 7.776h7.704c1.368-2.088 2.592-4.32 3.888-7.56L155.07 3.6a57.21 57.21 0 01-3.384 5.112h7.128c3.672 0 5.904-.144 8.208-.432v9.504c-2.376-.216-4.464-.288-8.208-.288h-17.208v2.664h15.84c3.024 0 4.608-.072 6.696-.288v8.496c-2.16-.216-3.816-.288-6.696-.288h-15.84v2.664h19.296c3.672 0 5.904-.144 8.208-.432v9.648c-2.232-.288-4.248-.36-8.208-.36H141.39c-.144 1.296-.216 1.728-.36 2.808h18.936c3.96 0 5.76-.072 8.208-.288v9.936c-2.664-.288-5.688-.432-9.144-.432h-12.888c2.664 2.304 5.472 3.816 9.36 5.04 4.392 1.44 8.424 2.016 15.12 2.16-2.232 4.248-3.168 6.696-4.464 11.16-7.56-1.008-12.456-2.376-18.072-5.112-5.4-2.592-9-5.184-12.528-9-6.048 7.92-13.968 11.808-28.584 14.04-1.152-4.032-2.088-6.192-4.536-10.656 11.88-1.008 17.784-3.024 22.608-7.632H113.67c-3.456 0-6.48.144-9.072.432V42.12c2.52.216 4.68.288 8.136.288h17.064c.216-1.368.288-1.8.36-2.808zm101.717-14.544h-12.312c-2.808 4.464-4.464 6.696-7.56 9.936-2.952-3.024-5.4-4.968-9.144-7.416 6.768-6.336 11.952-15.48 13.248-23.472l11.592 3.456c-.504 1.152-.648 1.584-1.368 3.384a67.788 67.788 0 01-1.368 3.672h6.912V9.792c0-3.6-.144-5.616-.432-7.848h12.456c-.36 2.016-.432 4.104-.432 7.776v4.896h13.032c3.96 0 6.48-.144 8.712-.432v11.304c-2.376-.288-5.04-.432-8.784-.432h-12.96v11.52h16.704c3.744 0 6.768-.144 9.504-.504v11.664c-2.664-.36-5.976-.504-9.504-.504h-16.704V60.12c0 4.464.072 7.344.432 9.432h-12.456c.288-2.376.432-5.112.432-9.432V47.232h-18.072c-3.6 0-6.624.144-9.432.504V36.072c2.88.36 5.832.504 9.432.504h18.072v-11.52zm136.35-6.84V61.2c0 3.456-1.44 5.904-4.249 7.128-1.368.648-3.384.864-6.912.864-1.224 0-5.832-.144-8.784-.288-.288-4.104-.936-6.552-2.448-10.368 1.296.144 1.728.144 2.88.288-4.32-2.232-8.424-5.328-11.88-8.928-3.456 5.184-6.912 8.28-13.824 12.24-1.872-3.096-3.168-4.752-5.4-7.272v5.76c0 4.68.072 6.768.288 9.144h-11.88c.36-2.664.504-5.328.504-8.64V16.56c0-3.528-.072-5.112-.36-7.488 2.664.216 4.752.288 9.576.288h16.056c.144-2.088.144-2.448.144-5.544 0-.72 0-1.152-.072-1.944l11.664.432c-.216 1.368-.36 2.592-.576 5.256-.072.72-.072 1.008-.144 1.8h16.704c5.112 0 6.984-.072 9.072-.288-.288 2.232-.36 4.248-.36 9.144zm-11.16 31.968v-17.64c-1.44 2.592-2.377 4.464-3.673 7.848-4.248-1.728-6.84-3.24-10.44-5.976-.288.864-.36 1.008-.792 2.664-.288 1.224-.504 1.872-.936 3.168 2.304 2.664 4.896 4.752 8.496 6.768 2.304 1.296 4.032 2.088 7.344 3.168zm0 7.704v-7.056c-2.233 2.808-3.529 4.968-5.185 8.352 1.944.072 3.024.072 3.096.072 1.584 0 2.088-.288 2.088-1.368zM332.294 33.48l10.368.792c-2.52-1.944-4.464-3.672-6.264-5.544-1.296 1.872-2.304 2.952-4.104 4.752zm-14.688.504v18.072c6.912-3.456 11.016-7.488 13.176-12.888.648-1.656 1.152-3.816 1.224-5.472-2.808 2.664-5.04 4.176-9.792 6.84-1.512-2.736-2.592-4.176-4.608-6.552zm39.456-14.328h-15.696c4.176 4.392 9.936 8.064 15.696 9.936v-9.936zm-39.456 0v11.016c6.48-3.384 9.648-6.264 11.88-11.016h-11.88z" fill="#FFF" fill-rule="nonzero" stroke="#111" stroke-width=".6"/></svg>