<svg width="388" height="73" xmlns="http://www.w3.org/2000/svg"><path d="M31.96 44.936H2.776C1.332 44.936.42 43.72.42 42.048s.912-2.812 2.356-2.812H31.96v-17.1H15.24c-2.204 3.952-4.712 7.6-7.448 10.792-.608.684-1.368 1.064-2.128 1.064s-1.52-.304-2.204-.836c-.684-.532-1.064-1.292-1.064-2.128 0-.684.304-1.444.76-2.052 5.472-6.156 9.804-14.06 12.16-22.04.456-1.216 1.368-1.824 2.508-1.824.456 0 .912.076 1.368.228 1.444.456 2.052 1.292 2.052 2.432 0 .38-.076.76-.228 1.14a64.45 64.45 0 01-2.964 7.524H31.96V3.288c0-1.368 1.368-2.28 3.116-2.28 1.672 0 2.964.912 2.964 2.28v13.148h24.32c1.368 0 2.28 1.216 2.28 2.888 0 1.596-.912 2.812-2.28 2.812H38.04v17.1h28.956c1.444 0 2.356 1.14 2.356 2.812s-.912 2.888-2.356 2.888H38.04v24.016c0 1.444-1.292 2.356-2.964 2.356-1.748 0-3.116-.912-3.116-2.356V44.936zm107.976-.912c-3.572 6.612-9.12 11.704-16.644 15.276-.532.152-.988.304-1.444.304-.988 0-1.9-.532-2.432-1.596a2.997 2.997 0 01-.38-1.52c0-1.064.532-1.976 1.52-2.356 9.5-4.104 15.656-11.172 17.708-21.508.304-1.216 1.216-1.9 2.584-1.9.228 0 .38 0 .608.076 1.52.152 2.432.988 2.432 2.356 0 .152 0 .38-.076.608-.38 1.824-.912 3.572-1.596 5.168 4.484 6.08 11.096 11.096 18.316 13.984.836.38 1.368 1.216 1.368 2.204 0 .456-.152.988-.38 1.52-.608 1.14-1.596 1.672-2.584 1.672-.456 0-.912-.076-1.292-.304-6.916-3.116-13.376-8.208-17.708-13.984zm24.016-27.588h-21.584c4.712 7.6 12.084 12.768 19.608 15.96.912.456 1.444 1.368 1.444 2.432 0 .456-.152.988-.38 1.52-.532 1.14-1.368 1.596-2.356 1.596a3.46 3.46 0 01-1.52-.38c-7.676-3.648-14.82-9.272-19.152-15.884-3.496 6.612-9.12 11.704-16.948 15.884-.532.304-1.064.456-1.596.456-.988 0-1.824-.456-2.356-1.52-.228-.532-.38-1.064-.38-1.596 0-1.064.456-1.976 1.292-2.356 8.36-4.028 13.528-8.74 16.188-16.112h-18.088c-1.824 0-2.66.532-2.66 2.204v50.388c0 1.368-1.292 2.128-2.964 2.128-1.748 0-3.04-.76-3.04-2.128V17.5c0-4.636 2.356-6.536 7.144-6.536h21.128c.38-2.432.684-5.092.76-8.056.076-1.52 1.216-2.28 2.964-2.28 1.672 0 3.04.836 3.04 2.28v.152c-.152 2.812-.456 5.472-.912 7.904h21.812c4.788 0 7.144 1.9 7.144 6.536v45.296c0 4.788-2.812 7.068-8.512 7.068-3.192 0-6.992-.152-9.652-.684-1.444-.228-2.356-1.14-2.356-2.584 0-.304 0-.532.076-.836.304-1.52 1.368-2.204 2.584-2.204.152 0 .38 0 .532.076 2.356.456 5.396.684 7.904.684 3.04 0 3.572-.684 3.572-2.888V18.64c0-1.672-.912-2.204-2.736-2.204zm114.968 8.436h-29.488a57.303 57.303 0 0011.856 23.408c5.624 6.688 12.54 11.78 19.152 14.82 1.216.532 1.748 1.52 1.748 2.584 0 .684-.228 1.444-.608 2.052a3.124 3.124 0 01-2.736 1.596 4.358 4.358 0 01-1.9-.456c-7.296-3.572-14.82-9.728-20.216-16.644a59.049 59.049 0 01-10.032-19.456c-1.216 5.092-2.964 9.652-5.396 14.06-5.396 9.88-14.212 17.784-24.472 22.42-.532.228-1.064.38-1.52.38-1.064 0-2.128-.532-2.812-1.9a3.465 3.465 0 01-.456-1.672c0-1.064.608-1.976 1.672-2.508 10.564-4.788 17.708-10.944 22.572-19.988 3.116-5.7 4.864-11.4 5.852-18.696h-26.904c-1.52 0-2.356-1.368-2.356-3.04 0-1.596.836-2.888 2.356-2.888h27.512c.304-4.256.456-9.12.456-14.744 0-1.824 1.292-2.584 3.116-2.584 1.9 0 3.04.912 3.04 2.584 0 5.32-.152 10.184-.532 14.744h30.096c1.52 0 2.356 1.292 2.356 2.888 0 1.672-.836 3.04-2.356 3.04zM355.28 9.52h9.652c2.432-2.508 4.332-5.092 5.776-7.372.456-.76 1.292-1.216 2.204-1.216.38 0 .836.076 1.292.228 1.292.38 1.9 1.14 1.9 1.976 0 .304-.076.608-.304.912-1.292 1.824-3.04 3.8-4.788 5.472h8.284c4.484 0 6.46 1.672 6.46 5.776v6.764c0 1.368-1.064 2.204-2.812 2.204-1.672 0-2.736-.836-2.736-2.204v-6.08c0-1.52-.76-1.976-2.356-1.976h-50.008c-1.52 0-2.28.456-2.28 1.976v6.004c0 1.368-1.064 2.28-2.812 2.28-1.672 0-2.66-.912-2.66-2.28v-6.688c0-4.104 1.9-5.776 6.384-5.776h8.132a117.398 117.398 0 00-4.712-5.244c-.228-.304-.38-.608-.38-.988 0-.684.456-1.444 1.596-1.9.532-.152.988-.228 1.368-.228.988 0 1.748.456 2.28.988 1.748 1.748 3.952 4.56 5.928 7.372h9.12V2.376c0-1.292.988-2.128 2.736-2.128 1.672 0 2.736.836 2.736 2.128V9.52zm-17.632 7.904H368.2c4.484 0 6.08 1.14 6.08 4.56v3.952c0 3.496-1.672 4.56-5.548 4.56h-31.54c-3.952 0-5.624-1.064-5.624-4.56v-3.952c0-3.42 1.596-4.56 6.08-4.56zm29.488 4.028h-28.424c-1.368 0-1.824.38-1.824 1.292v2.28c0 .988.456 1.444 1.824 1.444h28.424c1.368 0 1.824-.456 1.824-1.444v-2.28c0-.912-.456-1.292-1.824-1.292zM333.772 33.84H372c4.788 0 6.612 1.596 6.612 5.396V55.88c0 3.8-1.824 5.396-6.156 5.396h-39.14c-4.332 0-6.232-1.596-6.232-5.396V39.236c0-3.8 2.052-5.396 6.688-5.396zm-1.292 7.98h40.736v-2.204c0-1.292-.76-1.672-2.128-1.672h-36.556c-1.368 0-2.052.38-2.052 1.672v2.204zm0 3.8v3.648h40.736V45.62H332.48zm0 7.448V55.5c0 1.292.684 1.672 2.052 1.672h36.556c1.368 0 2.128-.38 2.128-1.672v-2.432H332.48zm7.904 10.108c.608-.228 1.14-.38 1.672-.38.76 0 1.444.304 1.976 1.064.38.532.532 1.064.532 1.596 0 .76-.456 1.52-1.368 1.9-6.004 2.508-14.744 4.332-21.356 5.016h-.38c-1.52 0-2.584-.912-2.736-2.432v-.38c0-1.444.912-2.28 2.584-2.356 6.308-.532 13.452-1.824 19.076-4.028zm23.788-.076c5.7 2.28 13.68 3.876 20.596 4.104 1.52.076 2.432.836 2.432 2.356v.38c-.152 1.596-1.216 2.508-2.812 2.508h-.38c-7.296-.608-16.188-2.432-21.964-5.016-.912-.456-1.368-1.14-1.368-1.9 0-.456.152-.988.456-1.444.456-.912 1.064-1.292 1.824-1.292.38 0 .76.076 1.216.304z" fill="#F2D850" fill-rule="nonzero"/></svg>