<svg width="400" height="75" xmlns="http://www.w3.org/2000/svg"><path d="M23.23 11.576c-.363.104-.544.337-.544.7v12.197c0 .414.181.622.544.622h8.857c.932 0 1.735.336 2.408 1.01.674.673 1.01 1.476 1.01 2.408 0 .932-.336 1.735-1.01 2.408-.673.674-1.476 1.01-2.408 1.01H23.23c-.363 0-.544.182-.544.544v.7c0 .362.13.699.389 1.01 2.537 2.59 5.878 6.344 10.022 11.265.725.829 1.087 1.838 1.087 3.03 0 1.036-.31 1.994-.932 2.874-.518.726-1.217 1.062-2.098 1.01-.88-.051-1.58-.44-2.097-1.165-1.399-2.124-3.419-4.972-6.06-8.546-.052-.052-.117-.065-.194-.039-.078.026-.117.09-.117.194v28.047c0 1.036-.363 1.916-1.088 2.642-.725.725-1.592 1.087-2.602 1.087-1.01 0-1.878-.362-2.603-1.087-.725-.726-1.088-1.606-1.088-2.642V43.197c0-.104-.039-.156-.116-.156-.078 0-.117.026-.117.078C11.861 50.526 8.52 56.534 5.05 61.144c-.518.621-1.14.932-1.865.932a.865.865 0 01-.388-.078c-.932-.103-1.632-.57-2.098-1.398A5.452 5.452 0 010 57.88v-.466a5.436 5.436 0 011.243-3.03c4.869-6.008 8.883-13.31 12.042-21.909.052-.155.026-.285-.077-.388-.104-.104-.208-.156-.311-.156H3.885c-.933 0-1.736-.336-2.409-1.01-.673-.673-1.01-1.476-1.01-2.408 0-.932.337-1.735 1.01-2.409.673-.673 1.476-1.01 2.409-1.01h10.799c.414 0 .621-.207.621-.621V13.829c0-.414-.207-.57-.621-.466-2.176.363-5.05.751-8.624 1.165h-.466a3.406 3.406 0 01-1.865-.543 4.277 4.277 0 01-1.554-2.02c-.31-.726-.272-1.412.117-2.06.388-.647.945-1.022 1.67-1.126 9.22-1.398 16.86-3.082 22.92-5.05a5.646 5.646 0 011.786-.31c.518 0 1.036.077 1.554.233 1.088.31 1.994.88 2.72 1.709.414.518.62 1.062.62 1.631 0 .26-.025.492-.077.7-.207.88-.75 1.476-1.631 1.786a77.853 77.853 0 01-8.624 2.098zm21.987 45.372c0 .415.181.622.544.622h14.373c.362 0 .543-.207.543-.622V16.781c0-.414-.18-.621-.543-.621H45.76c-.363 0-.544.207-.544.621v40.167zm-7.148-43.274c0-1.243.44-2.318 1.32-3.224.881-.907 1.969-1.36 3.264-1.36h21.054c1.243 0 2.318.453 3.225 1.36.906.906 1.36 1.98 1.36 3.224v53.063c0 1.036-.376 1.93-1.127 2.68-.751.752-1.645 1.127-2.68 1.127-1.037 0-1.93-.375-2.681-1.126-.751-.751-1.127-1.645-1.127-2.68v-1.554c0-.363-.18-.544-.543-.544H45.76c-.363 0-.544.181-.544.544v2.33c0 .984-.35 1.826-1.05 2.525-.698.7-1.54 1.05-2.524 1.05s-1.826-.35-2.525-1.05c-.7-.699-1.049-1.54-1.049-2.525v-53.84zm140.222 24.939c.984 0 1.839.362 2.564 1.088.725.725 1.088 1.58 1.088 2.563 0 .985-.363 1.84-1.088 2.564-.725.725-1.58 1.088-2.564 1.088h-26.648c-.363 0-.544.207-.544.621V68.99c0 1.088-.376 2.007-1.127 2.759-.75.75-1.67 1.126-2.758 1.126-1.087 0-2.007-.375-2.758-1.126-.75-.752-1.126-1.67-1.126-2.759V46.537c0-.414-.182-.621-.544-.621h-28.513c-.984 0-1.839-.363-2.564-1.088-.725-.725-1.088-1.58-1.088-2.564s.363-1.838 1.088-2.563c.725-.726 1.58-1.088 2.564-1.088h28.513c.362 0 .544-.207.544-.622V21.676c0-.414-.182-.621-.544-.621h-17.092c-.363 0-.622.18-.777.543-1.813 3.419-3.574 6.371-5.283 8.857-.622.88-1.502 1.425-2.642 1.632a5.23 5.23 0 01-.854.077 4.622 4.622 0 01-2.331-.621c-.829-.466-1.347-1.191-1.554-2.175a2.888 2.888 0 01-.078-.7c0-.673.207-1.295.622-1.864 4.247-5.439 7.665-12.483 10.255-21.132.31-1.088.932-1.917 1.865-2.487.673-.414 1.372-.621 2.097-.621.311 0 .596.026.855.078 1.088.207 1.916.776 2.486 1.709.31.57.466 1.165.466 1.787 0 .362-.052.725-.155 1.087a93.38 93.38 0 01-2.098 6.06c-.052.156-.039.285.04.389.077.103.193.155.349.155h13.829c.362 0 .544-.207.544-.621V3.885c0-1.088.375-2.007 1.126-2.758.751-.751 1.67-1.127 2.758-1.127s2.007.376 2.758 1.127c.751.75 1.127 1.67 1.127 2.758v9.4c0 .363.181.544.544.544h22.064c1.036 0 1.904.35 2.603 1.049.7.7 1.049 1.554 1.049 2.564s-.35 1.864-1.05 2.564c-.698.699-1.566 1.049-2.602 1.049h-22.064c-.363 0-.544.207-.544.621v16.315c0 .415.181.622.544.622h26.648zm113.03-12.82c0 1.037-.376 1.93-1.127 2.681-.75.751-1.644 1.127-2.68 1.127h-24.628a.527.527 0 00-.389.155c-.103.104-.13.233-.077.388 2.848 8.391 6.759 15.642 11.731 21.754 4.092 5.076 8.935 9.09 14.528 12.042.933.518 1.477 1.295 1.632 2.331.052.207.078.415.078.622 0 .777-.26 1.502-.777 2.175-.829 1.036-1.813 1.71-2.953 2.02a3.519 3.519 0 01-1.243.233c-.725 0-1.45-.181-2.175-.544-11.706-6.785-20.537-18.154-26.493-34.106-.052-.104-.13-.156-.233-.156-.104 0-.155.052-.155.156-4.455 15.33-13.39 26.726-26.804 34.184a4.368 4.368 0 01-3.263.389c-1.14-.311-2.124-.933-2.953-1.865-.57-.57-.854-1.243-.854-2.02v-.466c.155-.984.647-1.71 1.476-2.176 13.57-7.096 22.194-18.62 25.871-34.573.104-.362-.051-.543-.466-.543h-23.773c-1.036 0-1.93-.376-2.68-1.127-.752-.75-1.127-1.644-1.127-2.68 0-1.036.375-1.93 1.126-2.68.751-.752 1.645-1.127 2.68-1.127h25.173c.362 0 .57-.181.621-.544.466-4.04.751-9.841.855-17.403.052-1.14.466-2.098 1.243-2.875C254.262.388 255.207 0 256.32 0c1.113 0 2.059.388 2.835 1.165.726.777 1.088 1.684 1.088 2.72 0 6.06-.31 11.912-.932 17.558-.052.363.103.544.466.544h27.736c1.036 0 1.93.375 2.68 1.126.751.751 1.127 1.645 1.127 2.68zm50.022-10.332c-.415 0-.622.207-.622.621v5.05c0 .933-.337 1.748-1.01 2.448-.673.699-1.489 1.048-2.447 1.048s-1.787-.35-2.486-1.048c-.7-.7-1.05-1.515-1.05-2.448v-6.215c0-1.243.454-2.318 1.36-3.224.907-.907 1.982-1.36 3.225-1.36h6.992c.155 0 .259-.052.31-.155a.33.33 0 000-.311 68.694 68.694 0 00-2.33-3.185c-.466-.674-.583-1.386-.35-2.137.233-.751.738-1.23 1.515-1.437a5.383 5.383 0 011.554-.233c.466 0 .958.077 1.476.233 1.036.259 1.89.777 2.564 1.554a83.127 83.127 0 012.72 3.573c.206.415.232.83.077 1.243-.155.415-.44.7-.855.855h10.1c.415 0 .622-.181.622-.544V5.361c0-1.036.35-1.904 1.049-2.603.699-.7 1.554-1.049 2.564-1.049s1.877.35 2.602 1.05c.725.698 1.088 1.566 1.088 2.602v4.428c0 .363.207.544.621.544h9.557c-.156-.052-.182-.13-.078-.233 1.14-1.347 2.33-2.978 3.574-4.895.673-.984 1.528-1.709 2.564-2.175a5.592 5.592 0 012.02-.388c.414 0 .828.051 1.243.155.932.259 1.553.803 1.864 1.631.104.311.156.622.156.933 0 .518-.208 1.01-.622 1.476a116.54 116.54 0 01-2.72 3.108c-.103.103-.129.194-.077.271.052.078.13.117.233.117h7.07c1.295 0 2.383.453 3.263 1.36.88.906 1.321 1.98 1.321 3.224v6.138c0 .984-.35 1.825-1.049 2.525-.7.699-1.54 1.048-2.525 1.048-.984 0-1.826-.35-2.525-1.048-.699-.7-1.049-1.541-1.049-2.525v-4.973c0-.414-.207-.621-.621-.621h-50.888zm12.12 8.08c-.363 0-.544.207-.544.621v3.341c0 .414.181.621.544.621h26.57c.363 0 .544-.207.544-.621v-3.34c0-.415-.181-.622-.544-.622h-26.57zm34.417 4.35c0 1.295-.44 2.383-1.32 3.263-.881.881-1.969 1.321-3.264 1.321h-32.63c-1.295 0-2.383-.44-3.263-1.32-.881-.881-1.321-1.969-1.321-3.264v-4.117c0-1.243.44-2.318 1.32-3.224.881-.907 1.969-1.36 3.264-1.36h32.63c1.295 0 2.383.453 3.263 1.36.88.906 1.321 1.98 1.321 3.224v4.117zm-37.292 37.526c1.347-.518 2.616-.777 3.807-.777 1.14 0 2.227.207 3.263.621.673.26 1.036.777 1.088 1.554.051.777-.233 1.32-.855 1.632-4.558 2.227-10.178 4.17-16.86 5.827-.569.103-1.139.155-1.708.155-1.761 0-3.367-.751-4.817-2.253a1.798 1.798 0 01-.544-1.32c0-.156.026-.338.078-.545.207-.777.699-1.217 1.476-1.32 6.111-.985 11.136-2.176 15.072-3.574zm-1.32-9.867c-.363 0-.545.207-.545.621v2.642c0 .362.182.544.544.544h35.583c.414 0 .622-.182.622-.544V56.17c0-.414-.208-.621-.622-.621h-35.583zm0-7.77c-.363 0-.545.182-.545.544v2.564c0 .415.182.622.544.622h35.583c.414 0 .622-.207.622-.622v-2.564c0-.362-.208-.543-.622-.543h-35.583zm0-7.769c-.363 0-.545.208-.545.622v2.486c0 .414.182.622.544.622h35.583c.414 0 .622-.208.622-.622v-2.486c0-.414-.208-.622-.622-.622h-35.583zm43.507 19.113c0 1.243-.454 2.317-1.36 3.224-.906.906-1.981 1.36-3.224 1.36h-9.4c-.053 0-.079.012-.079.038s.026.04.078.04a319.293 319.293 0 0118.568 5.515c.881.26 1.321.855 1.321 1.787 0 .725-.336 1.27-1.01 1.632-1.398.777-2.848 1.165-4.35 1.165a9.945 9.945 0 01-3.419-.621 179.848 179.848 0 00-13.518-4.429c-.933-.259-1.477-.842-1.632-1.748-.155-.906.13-1.619.855-2.137l1.243-.932c.103-.052.142-.116.116-.194-.026-.078-.09-.117-.194-.117h-30.61c-1.244 0-2.318-.453-3.225-1.36-.906-.906-1.36-1.98-1.36-3.223V40.4c0-1.243.454-2.318 1.36-3.224.907-.907 1.981-1.36 3.224-1.36h42.032c1.243 0 2.318.453 3.224 1.36.906.906 1.36 1.98 1.36 3.224v18.724z" fill="#F2D850" fill-rule="nonzero"/></svg>